<mxfile modified="2023-08-30T00:15:52.119Z" host="Electron" agent="Mozilla/5.0 (Windows NT 10.0; Win64; x64) AppleWebKit/537.36 (KHTML, like Gecko) draw.io/21.6.8 Chrome/114.0.5735.289 Electron/25.5.0 Safari/537.36" etag="Zo4a-2ZoeJdAsuOoELe2" version="21.6.8" type="device">
  <diagram id="wqtmN0Sbq4b8m8E4POC0" name="Page-1">
    <mxGraphModel dx="1223" dy="2164" grid="0" gridSize="10" guides="1" tooltips="1" connect="1" arrows="1" fold="1" page="0" pageScale="1" pageWidth="2000" pageHeight="1500" math="0" shadow="0">
      <root>
        <mxCell id="0" />
        <mxCell id="1" parent="0" />
        <mxCell id="CUOggQJLTnRWmichhhx5-117" style="edgeStyle=orthogonalEdgeStyle;rounded=0;orthogonalLoop=1;jettySize=auto;html=1;exitX=1;exitY=0.5;exitDx=0;exitDy=0;entryX=0.5;entryY=0;entryDx=0;entryDy=0;fontFamily=Courier New;strokeWidth=2;" parent="1" source="CUOggQJLTnRWmichhhx5-5" target="CUOggQJLTnRWmichhhx5-116" edge="1">
          <mxGeometry relative="1" as="geometry">
            <Array as="points">
              <mxPoint x="480" y="2938" />
              <mxPoint x="480" y="2993" />
              <mxPoint x="402" y="2993" />
            </Array>
          </mxGeometry>
        </mxCell>
        <mxCell id="DogAiKTYdXcOURNrDC-U-54" style="edgeStyle=orthogonalEdgeStyle;rounded=0;orthogonalLoop=1;jettySize=auto;html=1;exitX=0.5;exitY=1;exitDx=0;exitDy=0;entryX=0.25;entryY=0;entryDx=0;entryDy=0;strokeColor=#FFFFFF;strokeWidth=2;fontFamily=Courier New;dashed=1;" parent="1" source="CUOggQJLTnRWmichhhx5-15" target="1jXVWYmQ-CDgsmhZdw6f-74" edge="1">
          <mxGeometry relative="1" as="geometry">
            <Array as="points">
              <mxPoint x="397" y="3620" />
              <mxPoint x="485" y="3620" />
            </Array>
          </mxGeometry>
        </mxCell>
        <mxCell id="CUOggQJLTnRWmichhhx5-15" value="&lt;font color=&quot;#ff0000&quot;&gt;X&lt;/font&gt;" style="rounded=0;whiteSpace=wrap;html=1;" parent="1" vertex="1">
          <mxGeometry x="376.5" y="3331.6666666666665" width="40" height="60" as="geometry" />
        </mxCell>
        <mxCell id="CUOggQJLTnRWmichhhx5-33" value="pila" style="text;html=1;resizable=0;points=[];autosize=1;align=left;verticalAlign=top;spacingTop=-4;" parent="1" vertex="1">
          <mxGeometry x="377.5" y="3282.6666666666665" width="30" height="20" as="geometry" />
        </mxCell>
        <mxCell id="CUOggQJLTnRWmichhhx5-34" value="Nodo*" style="text;html=1;resizable=0;points=[];autosize=1;align=left;verticalAlign=top;spacingTop=-4;" parent="1" vertex="1">
          <mxGeometry x="377.5" y="3262.6666666666665" width="50" height="20" as="geometry" />
        </mxCell>
        <mxCell id="CUOggQJLTnRWmichhhx5-36" value="" style="endArrow=none;html=1;curved=1;" parent="1" edge="1">
          <mxGeometry width="50" height="50" relative="1" as="geometry">
            <mxPoint x="86.5" y="3421.6666666666665" as="sourcePoint" />
            <mxPoint x="636.5" y="3322.6666666666665" as="targetPoint" />
            <Array as="points">
              <mxPoint x="466.5" y="3421.6666666666665" />
            </Array>
          </mxGeometry>
        </mxCell>
        <mxCell id="CUOggQJLTnRWmichhhx5-37" value="main()" style="text;html=1;resizable=0;points=[];autosize=1;align=left;verticalAlign=top;spacingTop=-4;" parent="1" vertex="1">
          <mxGeometry x="157.5" y="3330.6666666666665" width="50" height="20" as="geometry" />
        </mxCell>
        <mxCell id="CUOggQJLTnRWmichhhx5-38" value="" style="endArrow=none;html=1;curved=1;" parent="1" edge="1">
          <mxGeometry width="50" height="50" relative="1" as="geometry">
            <mxPoint x="131.5" y="3640.6666666666665" as="sourcePoint" />
            <mxPoint x="681.5" y="3541.6666666666665" as="targetPoint" />
            <Array as="points">
              <mxPoint x="511.5" y="3640.6666666666665" />
            </Array>
          </mxGeometry>
        </mxCell>
        <mxCell id="CUOggQJLTnRWmichhhx5-39" value="desapilar()" style="text;html=1;resizable=0;points=[];autosize=1;align=left;verticalAlign=top;spacingTop=-4;" parent="1" vertex="1">
          <mxGeometry x="76.5" y="3518.6666666666665" width="70" height="20" as="geometry" />
        </mxCell>
        <mxCell id="CUOggQJLTnRWmichhhx5-47" style="edgeStyle=orthogonalEdgeStyle;rounded=0;orthogonalLoop=1;jettySize=auto;html=1;exitX=0;exitY=0.5;exitDx=0;exitDy=0;entryX=1;entryY=0.5;entryDx=0;entryDy=0;strokeWidth=2;" parent="1" source="CUOggQJLTnRWmichhhx5-42" target="CUOggQJLTnRWmichhhx5-15" edge="1">
          <mxGeometry relative="1" as="geometry" />
        </mxCell>
        <mxCell id="CUOggQJLTnRWmichhhx5-50" value="Heap" style="text;html=1;resizable=0;points=[];autosize=1;align=left;verticalAlign=top;spacingTop=-4;" parent="1" vertex="1">
          <mxGeometry x="157.5" y="3681.6666666666665" width="40" height="20" as="geometry" />
        </mxCell>
        <mxCell id="CUOggQJLTnRWmichhhx5-62" value="Nodo* nae" style="text;html=1;resizable=0;points=[];autosize=1;align=left;verticalAlign=top;spacingTop=-4;fontFamily=Courier New;" parent="1" vertex="1">
          <mxGeometry x="187" y="2370.3045977011493" width="70" height="20" as="geometry" />
        </mxCell>
        <mxCell id="CUOggQJLTnRWmichhhx5-71" value="4" style="rounded=0;whiteSpace=wrap;html=1;" parent="1" vertex="1">
          <mxGeometry x="676.5" y="1269.0166666666664" width="40" height="60" as="geometry" />
        </mxCell>
        <mxCell id="CUOggQJLTnRWmichhhx5-73" value="unsigned tamElem" style="text;html=1;resizable=0;points=[];autosize=1;align=left;verticalAlign=top;spacingTop=-4;fontFamily=Courier New;" parent="1" vertex="1">
          <mxGeometry x="676.5" y="1247.0166666666664" width="110" height="20" as="geometry" />
        </mxCell>
        <mxCell id="UUmBQIanD07gFp9sYFJJ-20" style="edgeStyle=orthogonalEdgeStyle;rounded=0;orthogonalLoop=1;jettySize=auto;html=1;exitX=0.5;exitY=1;exitDx=0;exitDy=0;entryX=0.25;entryY=0;entryDx=0;entryDy=0;fillColor=#e51400;strokeColor=#B20000;strokeWidth=3;" edge="1" parent="1" source="CUOggQJLTnRWmichhhx5-98" target="1jXVWYmQ-CDgsmhZdw6f-48">
          <mxGeometry relative="1" as="geometry">
            <Array as="points">
              <mxPoint x="207" y="2594" />
              <mxPoint x="387" y="2594" />
            </Array>
          </mxGeometry>
        </mxCell>
        <mxCell id="CUOggQJLTnRWmichhhx5-98" value="BA18" style="rounded=0;whiteSpace=wrap;html=1;" parent="1" vertex="1">
          <mxGeometry x="187" y="2390.3045977011493" width="40" height="60" as="geometry" />
        </mxCell>
        <mxCell id="CUOggQJLTnRWmichhhx5-112" style="edgeStyle=orthogonalEdgeStyle;rounded=0;orthogonalLoop=1;jettySize=auto;html=1;entryX=1;entryY=0.5;entryDx=0;entryDy=0;strokeWidth=2;" parent="1" source="CUOggQJLTnRWmichhhx5-113" target="CUOggQJLTnRWmichhhx5-114" edge="1">
          <mxGeometry relative="1" as="geometry" />
        </mxCell>
        <mxCell id="CUOggQJLTnRWmichhhx5-113" value="" style="rounded=0;whiteSpace=wrap;html=1;" parent="1" vertex="1">
          <mxGeometry x="342" y="3017.8045977011493" width="43" height="60" as="geometry" />
        </mxCell>
        <mxCell id="CUOggQJLTnRWmichhhx5-114" value="7" style="rounded=0;whiteSpace=wrap;html=1;" parent="1" vertex="1">
          <mxGeometry x="261" y="3017.8045977011493" width="42" height="60" as="geometry" />
        </mxCell>
        <mxCell id="CUOggQJLTnRWmichhhx5-115" value="X" style="rounded=0;whiteSpace=wrap;html=1;" parent="1" vertex="1">
          <mxGeometry x="421.5" y="3017.8045977011493" width="40" height="60" as="geometry" />
        </mxCell>
        <mxCell id="CUOggQJLTnRWmichhhx5-116" value="4" style="rounded=0;whiteSpace=wrap;html=1;" parent="1" vertex="1">
          <mxGeometry x="381.5" y="3017.8045977011493" width="40" height="60" as="geometry" />
        </mxCell>
        <mxCell id="VzSruJw_X9b5pIAjGCg9-149" style="edgeStyle=orthogonalEdgeStyle;rounded=0;orthogonalLoop=1;jettySize=auto;html=1;exitX=0.5;exitY=1;exitDx=0;exitDy=0;entryX=0.75;entryY=0;entryDx=0;entryDy=0;strokeColor=#FFFFFF;strokeWidth=2;fontFamily=Courier New;dashed=1;" parent="1" source="1jXVWYmQ-CDgsmhZdw6f-1" target="1jXVWYmQ-CDgsmhZdw6f-48" edge="1">
          <mxGeometry relative="1" as="geometry" />
        </mxCell>
        <mxCell id="UUmBQIanD07gFp9sYFJJ-21" style="edgeStyle=orthogonalEdgeStyle;rounded=0;orthogonalLoop=1;jettySize=auto;html=1;exitX=1;exitY=0.5;exitDx=0;exitDy=0;entryX=0.75;entryY=0;entryDx=0;entryDy=0;fillColor=#e51400;strokeColor=#B20000;strokeWidth=3;" edge="1" parent="1" source="1jXVWYmQ-CDgsmhZdw6f-1" target="1jXVWYmQ-CDgsmhZdw6f-11">
          <mxGeometry relative="1" as="geometry">
            <Array as="points">
              <mxPoint x="503" y="2544" />
              <mxPoint x="503" y="2766" />
              <mxPoint x="407" y="2766" />
            </Array>
          </mxGeometry>
        </mxCell>
        <mxCell id="1jXVWYmQ-CDgsmhZdw6f-1" value="FA04" style="rounded=0;whiteSpace=wrap;html=1;" parent="1" vertex="1">
          <mxGeometry x="371.5" y="2514.3045977011493" width="40" height="60" as="geometry" />
        </mxCell>
        <mxCell id="1jXVWYmQ-CDgsmhZdw6f-2" value="pila" style="text;html=1;resizable=0;points=[];autosize=1;align=left;verticalAlign=top;spacingTop=-4;" parent="1" vertex="1">
          <mxGeometry x="372" y="2475.3045977011493" width="30" height="20" as="geometry" />
        </mxCell>
        <mxCell id="1jXVWYmQ-CDgsmhZdw6f-3" value="Nodo*" style="text;html=1;resizable=0;points=[];autosize=1;align=left;verticalAlign=top;spacingTop=-4;" parent="1" vertex="1">
          <mxGeometry x="372" y="2455.3045977011493" width="50" height="20" as="geometry" />
        </mxCell>
        <mxCell id="1jXVWYmQ-CDgsmhZdw6f-12" style="edgeStyle=orthogonalEdgeStyle;rounded=0;orthogonalLoop=1;jettySize=auto;html=1;exitX=1;exitY=0.5;exitDx=0;exitDy=0;entryX=0.5;entryY=0;entryDx=0;entryDy=0;strokeWidth=2;" parent="1" source="1jXVWYmQ-CDgsmhZdw6f-10" target="CUOggQJLTnRWmichhhx5-29" edge="1">
          <mxGeometry relative="1" as="geometry">
            <Array as="points">
              <mxPoint x="480" y="2817" />
              <mxPoint x="480" y="2877" />
              <mxPoint x="404" y="2877" />
            </Array>
          </mxGeometry>
        </mxCell>
        <mxCell id="1jXVWYmQ-CDgsmhZdw6f-14" value="elem" style="text;html=1;resizable=0;points=[];autosize=1;align=left;verticalAlign=top;spacingTop=-4;" parent="1" vertex="1">
          <mxGeometry x="342.5" y="2737.8045977011493" width="44" height="20" as="geometry" />
        </mxCell>
        <mxCell id="1jXVWYmQ-CDgsmhZdw6f-15" value="tamElem" style="text;html=1;resizable=0;points=[];autosize=1;align=left;verticalAlign=top;spacingTop=-4;" parent="1" vertex="1">
          <mxGeometry x="375.5" y="2739.3045977011493" width="60" height="20" as="geometry" />
        </mxCell>
        <mxCell id="1jXVWYmQ-CDgsmhZdw6f-16" value="sig" style="text;html=1;resizable=0;points=[];autosize=1;align=left;verticalAlign=top;spacingTop=-4;" parent="1" vertex="1">
          <mxGeometry x="431" y="2737.8045977011493" width="30" height="20" as="geometry" />
        </mxCell>
        <mxCell id="1jXVWYmQ-CDgsmhZdw6f-25" style="edgeStyle=orthogonalEdgeStyle;rounded=0;orthogonalLoop=1;jettySize=auto;html=1;exitX=0;exitY=0.5;exitDx=0;exitDy=0;entryX=0;entryY=0.5;entryDx=0;entryDy=0;strokeWidth=2;" parent="1" source="1jXVWYmQ-CDgsmhZdw6f-21" target="1jXVWYmQ-CDgsmhZdw6f-1" edge="1">
          <mxGeometry relative="1" as="geometry">
            <Array as="points">
              <mxPoint x="324" y="2423.3045977011493" />
              <mxPoint x="324" y="2544.3045977011493" />
            </Array>
          </mxGeometry>
        </mxCell>
        <mxCell id="1jXVWYmQ-CDgsmhZdw6f-21" value="FC08" style="ellipse;whiteSpace=wrap;html=1;aspect=fixed;" parent="1" vertex="1">
          <mxGeometry x="347" y="2392.8045977011493" width="60" height="60" as="geometry" />
        </mxCell>
        <mxCell id="1jXVWYmQ-CDgsmhZdw6f-22" value="Pila*" style="text;html=1;resizable=0;points=[];autosize=1;align=left;verticalAlign=top;spacingTop=-4;" parent="1" vertex="1">
          <mxGeometry x="353.5" y="2330.3045977011493" width="40" height="20" as="geometry" />
        </mxCell>
        <mxCell id="1jXVWYmQ-CDgsmhZdw6f-23" value="&lt;font face=&quot;Courier New&quot; style=&quot;font-size: 15px&quot;&gt;pp&lt;/font&gt;" style="text;html=1;resizable=0;points=[];autosize=1;align=left;verticalAlign=top;spacingTop=-4;" parent="1" vertex="1">
          <mxGeometry x="353" y="2350.3045977011493" width="30" height="20" as="geometry" />
        </mxCell>
        <mxCell id="1jXVWYmQ-CDgsmhZdw6f-24" value="Nodo**" style="text;html=1;resizable=0;points=[];autosize=1;align=left;verticalAlign=top;spacingTop=-4;" parent="1" vertex="1">
          <mxGeometry x="383" y="2330.3045977011493" width="50" height="20" as="geometry" />
        </mxCell>
        <mxCell id="1jXVWYmQ-CDgsmhZdw6f-35" value="FC08" style="text;html=1;resizable=0;points=[];autosize=1;align=left;verticalAlign=top;spacingTop=-4;" parent="1" vertex="1">
          <mxGeometry x="377.5" y="3310.6666666666665" width="40" height="20" as="geometry" />
        </mxCell>
        <mxCell id="1jXVWYmQ-CDgsmhZdw6f-36" value="FC08" style="text;html=1;resizable=0;points=[];autosize=1;align=left;verticalAlign=top;spacingTop=-4;" parent="1" vertex="1">
          <mxGeometry x="369.5" y="2495.3045977011493" width="40" height="20" as="geometry" />
        </mxCell>
        <mxCell id="1jXVWYmQ-CDgsmhZdw6f-37" value="FA04" style="text;html=1;resizable=0;points=[];autosize=1;align=left;verticalAlign=top;spacingTop=-4;" parent="1" vertex="1">
          <mxGeometry x="342" y="2766.8045977011493" width="40" height="20" as="geometry" />
        </mxCell>
        <mxCell id="1jXVWYmQ-CDgsmhZdw6f-40" value="FB1C" style="text;html=1;resizable=0;points=[];autosize=1;align=left;verticalAlign=top;spacingTop=-4;" parent="1" vertex="1">
          <mxGeometry x="353" y="2370.3045977011493" width="50" height="20" as="geometry" />
        </mxCell>
        <mxCell id="1jXVWYmQ-CDgsmhZdw6f-53" value="5" style="rounded=0;whiteSpace=wrap;html=1;" parent="1" vertex="1">
          <mxGeometry x="155" y="2543.8045977011493" width="40" height="60" as="geometry" />
        </mxCell>
        <mxCell id="1jXVWYmQ-CDgsmhZdw6f-54" value="void* elem" style="text;html=1;resizable=0;points=[];autosize=1;align=left;verticalAlign=top;spacingTop=-4;" parent="1" vertex="1">
          <mxGeometry x="155" y="2523.8045977011493" width="66" height="14" as="geometry" />
        </mxCell>
        <mxCell id="1jXVWYmQ-CDgsmhZdw6f-58" style="edgeStyle=orthogonalEdgeStyle;rounded=0;orthogonalLoop=1;jettySize=auto;html=1;exitX=1;exitY=0.5;exitDx=0;exitDy=0;entryX=0.25;entryY=0;entryDx=0;entryDy=0;fillColor=#e51400;strokeColor=#FFFFFF;strokeWidth=2;" parent="1" source="1jXVWYmQ-CDgsmhZdw6f-47" target="1jXVWYmQ-CDgsmhZdw6f-11" edge="1">
          <mxGeometry relative="1" as="geometry">
            <Array as="points">
              <mxPoint x="480" y="2668" />
              <mxPoint x="480" y="2742" />
              <mxPoint x="388" y="2742" />
            </Array>
          </mxGeometry>
        </mxCell>
        <mxCell id="1jXVWYmQ-CDgsmhZdw6f-59" value="FA24" style="text;html=1;resizable=0;points=[];autosize=1;align=left;verticalAlign=top;spacingTop=-4;" parent="1" vertex="1">
          <mxGeometry x="262.5" y="2614.8045977011493" width="40" height="20" as="geometry" />
        </mxCell>
        <mxCell id="1jXVWYmQ-CDgsmhZdw6f-61" value="BA18" style="text;html=1;resizable=0;points=[];autosize=1;align=left;verticalAlign=top;spacingTop=-4;" parent="1" vertex="1">
          <mxGeometry x="336.5" y="2616.8045977011493" width="40" height="20" as="geometry" />
        </mxCell>
        <mxCell id="E2CzWp87vkK9OvBvpkYC-16" style="edgeStyle=orthogonalEdgeStyle;rounded=0;orthogonalLoop=1;jettySize=auto;html=1;exitX=0.5;exitY=1;exitDx=0;exitDy=0;entryX=0.5;entryY=0;entryDx=0;entryDy=0;strokeColor=#FF0000;strokeWidth=2;fontFamily=Courier New;fontSize=15;fontColor=#FF0000;" parent="1" source="1jXVWYmQ-CDgsmhZdw6f-77" target="1jXVWYmQ-CDgsmhZdw6f-74" edge="1">
          <mxGeometry relative="1" as="geometry" />
        </mxCell>
        <mxCell id="1jXVWYmQ-CDgsmhZdw6f-77" value="BA18" style="rounded=0;whiteSpace=wrap;html=1;" parent="1" vertex="1">
          <mxGeometry x="473" y="3523.1666666666665" width="40" height="60" as="geometry" />
        </mxCell>
        <mxCell id="1jXVWYmQ-CDgsmhZdw6f-78" value="&lt;font face=&quot;Courier New&quot;&gt;Nodo* nae&lt;/font&gt;" style="text;html=1;resizable=0;points=[];autosize=1;align=left;verticalAlign=top;spacingTop=-4;" parent="1" vertex="1">
          <mxGeometry x="473" y="3503.1666666666665" width="80" height="20" as="geometry" />
        </mxCell>
        <mxCell id="1jXVWYmQ-CDgsmhZdw6f-79" value="FA24" style="text;html=1;resizable=0;points=[];autosize=1;align=left;verticalAlign=top;spacingTop=-4;" parent="1" vertex="1">
          <mxGeometry x="365" y="3643.1666666666665" width="40" height="20" as="geometry" />
        </mxCell>
        <mxCell id="1jXVWYmQ-CDgsmhZdw6f-80" value="BA18" style="text;html=1;resizable=0;points=[];autosize=1;align=left;verticalAlign=top;spacingTop=-4;" parent="1" vertex="1">
          <mxGeometry x="438.5" y="3642.1666666666665" width="40" height="20" as="geometry" />
        </mxCell>
        <mxCell id="1jXVWYmQ-CDgsmhZdw6f-83" value="5" style="rounded=0;whiteSpace=wrap;html=1;" parent="1" vertex="1">
          <mxGeometry x="286.71820448877804" y="3329.1666666666665" width="39.381546134663346" height="60" as="geometry" />
        </mxCell>
        <mxCell id="1jXVWYmQ-CDgsmhZdw6f-84" style="edgeStyle=orthogonalEdgeStyle;rounded=0;orthogonalLoop=1;jettySize=auto;html=1;entryX=0.5;entryY=1;entryDx=0;entryDy=0;exitX=0.5;exitY=0;exitDx=0;exitDy=0;strokeWidth=2;" parent="1" source="1jXVWYmQ-CDgsmhZdw6f-85" target="1jXVWYmQ-CDgsmhZdw6f-83" edge="1">
          <mxGeometry relative="1" as="geometry">
            <mxPoint x="326.5" y="3441.6666666666665" as="sourcePoint" />
          </mxGeometry>
        </mxCell>
        <mxCell id="1jXVWYmQ-CDgsmhZdw6f-85" value="AA04" style="rounded=0;whiteSpace=wrap;html=1;" parent="1" vertex="1">
          <mxGeometry x="266.5" y="3452.1666666666665" width="40" height="60" as="geometry" />
        </mxCell>
        <mxCell id="1jXVWYmQ-CDgsmhZdw6f-86" value="void* elem" style="text;html=1;resizable=0;points=[];autosize=1;align=left;verticalAlign=top;spacingTop=-4;fontFamily=Courier New;" parent="1" vertex="1">
          <mxGeometry x="267.5" y="3432.1666666666665" width="90" height="20" as="geometry" />
        </mxCell>
        <mxCell id="1jXVWYmQ-CDgsmhZdw6f-87" value="AA04" style="text;html=1;resizable=0;points=[];autosize=1;align=left;verticalAlign=top;spacingTop=-4;" parent="1" vertex="1">
          <mxGeometry x="286" y="3305.6666666666665" width="40" height="20" as="geometry" />
        </mxCell>
        <mxCell id="1jXVWYmQ-CDgsmhZdw6f-88" value="4" style="rounded=0;whiteSpace=wrap;html=1;" parent="1" vertex="1">
          <mxGeometry x="188.89401496259353" y="3493.1666666666665" width="37.50623441396509" height="60" as="geometry" />
        </mxCell>
        <mxCell id="1jXVWYmQ-CDgsmhZdw6f-89" value="tamElem" style="text;html=1;resizable=0;points=[];autosize=1;align=left;verticalAlign=top;spacingTop=-4;" parent="1" vertex="1">
          <mxGeometry x="189" y="3469.6666666666665" width="60" height="20" as="geometry" />
        </mxCell>
        <mxCell id="VzSruJw_X9b5pIAjGCg9-1" style="edgeStyle=orthogonalEdgeStyle;rounded=0;orthogonalLoop=1;jettySize=auto;html=1;exitX=1;exitY=0.5;exitDx=0;exitDy=0;entryX=0.5;entryY=0;entryDx=0;entryDy=0;fontFamily=Courier New;strokeWidth=2;" parent="1" source="VzSruJw_X9b5pIAjGCg9-11" target="VzSruJw_X9b5pIAjGCg9-6" edge="1">
          <mxGeometry relative="1" as="geometry" />
        </mxCell>
        <mxCell id="VzSruJw_X9b5pIAjGCg9-2" style="edgeStyle=orthogonalEdgeStyle;rounded=0;orthogonalLoop=1;jettySize=auto;html=1;entryX=1;entryY=0.5;entryDx=0;entryDy=0;strokeWidth=2;" parent="1" source="VzSruJw_X9b5pIAjGCg9-3" target="VzSruJw_X9b5pIAjGCg9-4" edge="1">
          <mxGeometry relative="1" as="geometry" />
        </mxCell>
        <mxCell id="VzSruJw_X9b5pIAjGCg9-3" value="" style="rounded=0;whiteSpace=wrap;html=1;" parent="1" vertex="1">
          <mxGeometry x="531" y="-753.5" width="43" height="60" as="geometry" />
        </mxCell>
        <mxCell id="VzSruJw_X9b5pIAjGCg9-4" value="tal?" style="rounded=0;whiteSpace=wrap;html=1;" parent="1" vertex="1">
          <mxGeometry x="452" y="-753.5" width="42" height="60" as="geometry" />
        </mxCell>
        <mxCell id="VzSruJw_X9b5pIAjGCg9-5" value="X" style="rounded=0;whiteSpace=wrap;html=1;" parent="1" vertex="1">
          <mxGeometry x="610.5" y="-753.5" width="40" height="60" as="geometry" />
        </mxCell>
        <mxCell id="VzSruJw_X9b5pIAjGCg9-6" value="5" style="rounded=0;whiteSpace=wrap;html=1;" parent="1" vertex="1">
          <mxGeometry x="570.5" y="-753.5" width="40" height="60" as="geometry" />
        </mxCell>
        <mxCell id="VzSruJw_X9b5pIAjGCg9-19" style="edgeStyle=orthogonalEdgeStyle;rounded=0;orthogonalLoop=1;jettySize=auto;html=1;exitX=1;exitY=0.5;exitDx=0;exitDy=0;entryX=0.5;entryY=0;entryDx=0;entryDy=0;strokeWidth=2;" parent="1" source="VzSruJw_X9b5pIAjGCg9-17" target="VzSruJw_X9b5pIAjGCg9-12" edge="1">
          <mxGeometry relative="1" as="geometry" />
        </mxCell>
        <mxCell id="VzSruJw_X9b5pIAjGCg9-20" value="void* elem" style="text;html=1;resizable=0;points=[];autosize=1;align=left;verticalAlign=top;spacingTop=-4;fontFamily=Courier New;" parent="1" vertex="1">
          <mxGeometry x="445" y="-1028" width="82" height="14" as="geometry" />
        </mxCell>
        <mxCell id="VzSruJw_X9b5pIAjGCg9-21" value="size_t tamElem" style="text;html=1;resizable=0;points=[];autosize=1;align=left;verticalAlign=top;spacingTop=-4;fontFamily=Courier New;" parent="1" vertex="1">
          <mxGeometry x="540.5" y="-1028" width="120" height="20" as="geometry" />
        </mxCell>
        <mxCell id="VzSruJw_X9b5pIAjGCg9-22" value="Nodo* sig" style="text;html=1;resizable=0;points=[];autosize=1;align=left;verticalAlign=top;spacingTop=-4;fontFamily=Courier New;" parent="1" vertex="1">
          <mxGeometry x="608.5" y="-1005" width="70" height="20" as="geometry" />
        </mxCell>
        <mxCell id="VzSruJw_X9b5pIAjGCg9-14" style="edgeStyle=orthogonalEdgeStyle;rounded=0;orthogonalLoop=1;jettySize=auto;html=1;exitX=0;exitY=0.5;exitDx=0;exitDy=0;entryX=1;entryY=0.5;entryDx=0;entryDy=0;strokeWidth=2;" parent="1" source="VzSruJw_X9b5pIAjGCg9-15" target="VzSruJw_X9b5pIAjGCg9-16" edge="1">
          <mxGeometry relative="1" as="geometry" />
        </mxCell>
        <mxCell id="VzSruJw_X9b5pIAjGCg9-15" value="FC18" style="rounded=0;whiteSpace=wrap;html=1;" parent="1" vertex="1">
          <mxGeometry x="530.356608478803" y="-984.5" width="40.31920199501247" height="60" as="geometry" />
        </mxCell>
        <mxCell id="VzSruJw_X9b5pIAjGCg9-16" value="Hola" style="rounded=0;whiteSpace=wrap;html=1;" parent="1" vertex="1">
          <mxGeometry x="451.71820448877804" y="-984.5" width="39.381546134663346" height="60" as="geometry" />
        </mxCell>
        <mxCell id="VzSruJw_X9b5pIAjGCg9-17" value="FC48" style="rounded=0;whiteSpace=wrap;html=1;" parent="1" vertex="1">
          <mxGeometry x="604.9002493765586" y="-984.5" width="37.50623441396509" height="60" as="geometry" />
        </mxCell>
        <mxCell id="VzSruJw_X9b5pIAjGCg9-18" value="5" style="rounded=0;whiteSpace=wrap;html=1;" parent="1" vertex="1">
          <mxGeometry x="567.3940149625935" y="-984.5" width="37.50623441396509" height="60" as="geometry" />
        </mxCell>
        <mxCell id="VzSruJw_X9b5pIAjGCg9-8" value="FBE4" style="rounded=0;whiteSpace=wrap;html=1;" parent="1" vertex="1">
          <mxGeometry x="530.36" y="-863.5" width="43" height="60" as="geometry" />
        </mxCell>
        <mxCell id="VzSruJw_X9b5pIAjGCg9-9" value="que" style="rounded=0;whiteSpace=wrap;html=1;" parent="1" vertex="1">
          <mxGeometry x="452" y="-863.5" width="42" height="60" as="geometry" />
        </mxCell>
        <mxCell id="VzSruJw_X9b5pIAjGCg9-10" style="edgeStyle=orthogonalEdgeStyle;rounded=0;orthogonalLoop=1;jettySize=auto;html=1;entryX=1;entryY=0.5;entryDx=0;entryDy=0;strokeWidth=2;" parent="1" source="VzSruJw_X9b5pIAjGCg9-8" target="VzSruJw_X9b5pIAjGCg9-9" edge="1">
          <mxGeometry relative="1" as="geometry" />
        </mxCell>
        <mxCell id="VzSruJw_X9b5pIAjGCg9-11" value="" style="rounded=0;whiteSpace=wrap;html=1;" parent="1" vertex="1">
          <mxGeometry x="604.9" y="-863.5" width="38.1" height="60" as="geometry" />
        </mxCell>
        <mxCell id="VzSruJw_X9b5pIAjGCg9-12" value="4" style="rounded=0;whiteSpace=wrap;html=1;" parent="1" vertex="1">
          <mxGeometry x="569.86" y="-863.5" width="35.14" height="60" as="geometry" />
        </mxCell>
        <mxCell id="2oO5v3imk66Kno3tlpe0-1" style="edgeStyle=orthogonalEdgeStyle;rounded=0;orthogonalLoop=1;jettySize=auto;html=1;exitX=0.5;exitY=1;exitDx=0;exitDy=0;entryX=0.5;entryY=0;entryDx=0;entryDy=0;strokeWidth=2;" parent="1" source="VzSruJw_X9b5pIAjGCg9-36" target="VzSruJw_X9b5pIAjGCg9-18" edge="1">
          <mxGeometry relative="1" as="geometry" />
        </mxCell>
        <mxCell id="VzSruJw_X9b5pIAjGCg9-36" value="FA04" style="rounded=0;whiteSpace=wrap;html=1;" parent="1" vertex="1">
          <mxGeometry x="565.5" y="-1112.001724137931" width="40" height="60" as="geometry" />
        </mxCell>
        <mxCell id="VzSruJw_X9b5pIAjGCg9-37" value="pila" style="text;html=1;resizable=0;points=[];autosize=1;align=left;verticalAlign=top;spacingTop=-4;fontFamily=Courier New;" parent="1" vertex="1">
          <mxGeometry x="565" y="-1151.001724137931" width="30" height="20" as="geometry" />
        </mxCell>
        <mxCell id="VzSruJw_X9b5pIAjGCg9-38" value="Pila / Nodo*" style="text;html=1;resizable=0;points=[];autosize=1;align=left;verticalAlign=top;spacingTop=-4;fontFamily=Courier New;" parent="1" vertex="1">
          <mxGeometry x="565" y="-1171.001724137931" width="80" height="20" as="geometry" />
        </mxCell>
        <mxCell id="VzSruJw_X9b5pIAjGCg9-39" value="FC08" style="text;html=1;resizable=0;points=[];autosize=1;align=left;verticalAlign=top;spacingTop=-4;fontFamily=Courier New;" parent="1" vertex="1">
          <mxGeometry x="563.5" y="-1131.001724137931" width="40" height="20" as="geometry" />
        </mxCell>
        <mxCell id="VzSruJw_X9b5pIAjGCg9-41" value="&lt;span style=&quot;text-align: center ; white-space: normal&quot;&gt;FA04&lt;/span&gt;" style="text;html=1;resizable=0;points=[];autosize=1;align=left;verticalAlign=top;spacingTop=-4;fontFamily=Courier New;" parent="1" vertex="1">
          <mxGeometry x="530.5" y="-1004.5" width="40" height="20" as="geometry" />
        </mxCell>
        <mxCell id="VzSruJw_X9b5pIAjGCg9-42" value="typedef Nodo* Pila;" style="text;html=1;resizable=0;points=[];autosize=1;align=left;verticalAlign=top;spacingTop=-4;fontFamily=Courier New;" parent="1" vertex="1">
          <mxGeometry x="533" y="-1190.95" width="120" height="20" as="geometry" />
        </mxCell>
        <mxCell id="VzSruJw_X9b5pIAjGCg9-43" value="FC48" style="text;html=1;resizable=0;points=[];autosize=1;align=left;verticalAlign=top;spacingTop=-4;" parent="1" vertex="1">
          <mxGeometry x="531.36" y="-883.5" width="40" height="20" as="geometry" />
        </mxCell>
        <mxCell id="UUmBQIanD07gFp9sYFJJ-17" style="edgeStyle=orthogonalEdgeStyle;rounded=0;orthogonalLoop=1;jettySize=auto;html=1;exitX=0.5;exitY=1;exitDx=0;exitDy=0;entryX=0.25;entryY=0;entryDx=0;entryDy=0;fillColor=#e51400;strokeColor=#B20000;strokeWidth=2;" edge="1" parent="1" source="VzSruJw_X9b5pIAjGCg9-44" target="VzSruJw_X9b5pIAjGCg9-140">
          <mxGeometry relative="1" as="geometry">
            <Array as="points">
              <mxPoint x="540" y="309" />
              <mxPoint x="464" y="309" />
            </Array>
          </mxGeometry>
        </mxCell>
        <mxCell id="VzSruJw_X9b5pIAjGCg9-44" value="CC04" style="rounded=0;whiteSpace=wrap;html=1;" parent="1" vertex="1">
          <mxGeometry x="520" y="165.0459770114942" width="40" height="60" as="geometry" />
        </mxCell>
        <mxCell id="VzSruJw_X9b5pIAjGCg9-45" value="pila" style="text;html=1;resizable=0;points=[];autosize=1;align=left;verticalAlign=top;spacingTop=-4;fontFamily=Courier New;" parent="1" vertex="1">
          <mxGeometry x="520.5" y="124.04597701149419" width="30" height="20" as="geometry" />
        </mxCell>
        <mxCell id="VzSruJw_X9b5pIAjGCg9-46" value="Nodo*" style="text;html=1;resizable=0;points=[];autosize=1;align=left;verticalAlign=top;spacingTop=-4;fontFamily=Courier New;" parent="1" vertex="1">
          <mxGeometry x="520.5" y="104.04597701149419" width="50" height="20" as="geometry" />
        </mxCell>
        <mxCell id="VzSruJw_X9b5pIAjGCg9-47" style="edgeStyle=orthogonalEdgeStyle;rounded=0;orthogonalLoop=1;jettySize=auto;html=1;exitX=0;exitY=0.5;exitDx=0;exitDy=0;entryX=1;entryY=0.5;entryDx=0;entryDy=0;strokeWidth=2;" parent="1" source="VzSruJw_X9b5pIAjGCg9-49" target="VzSruJw_X9b5pIAjGCg9-44" edge="1">
          <mxGeometry relative="1" as="geometry" />
        </mxCell>
        <mxCell id="VzSruJw_X9b5pIAjGCg9-53" value="FC08" style="text;html=1;resizable=0;points=[];autosize=1;align=left;verticalAlign=top;spacingTop=-4;fontFamily=Courier New;" parent="1" vertex="1">
          <mxGeometry x="522" y="143.5459770114942" width="40" height="20" as="geometry" />
        </mxCell>
        <mxCell id="VzSruJw_X9b5pIAjGCg9-54" value="" style="endArrow=none;html=1;curved=1;" parent="1" edge="1">
          <mxGeometry width="50" height="50" relative="1" as="geometry">
            <mxPoint x="150" y="265" as="sourcePoint" />
            <mxPoint x="822" y="166.16666666666663" as="targetPoint" />
            <Array as="points">
              <mxPoint x="652" y="265.16666666666663" />
            </Array>
          </mxGeometry>
        </mxCell>
        <mxCell id="VzSruJw_X9b5pIAjGCg9-55" value="main()" style="text;html=1;resizable=0;points=[];autosize=1;align=left;verticalAlign=top;spacingTop=-4;fontFamily=Courier New;" parent="1" vertex="1">
          <mxGeometry x="155" y="225.16666666666663" width="61" height="20" as="geometry" />
        </mxCell>
        <mxCell id="VzSruJw_X9b5pIAjGCg9-56" value="&lt;font face=&quot;Courier New&quot;&gt;apilar()&lt;/font&gt;" style="text;html=1;resizable=0;points=[];autosize=1;align=left;verticalAlign=top;spacingTop=-4;" parent="1" vertex="1">
          <mxGeometry x="151" y="272.66666666666663" width="70" height="20" as="geometry" />
        </mxCell>
        <mxCell id="VzSruJw_X9b5pIAjGCg9-49" value="FC08" style="ellipse;whiteSpace=wrap;html=1;aspect=fixed;" parent="1" vertex="1">
          <mxGeometry x="623" y="265.0459770114942" width="60" height="60" as="geometry" />
        </mxCell>
        <mxCell id="VzSruJw_X9b5pIAjGCg9-50" value="&lt;font&gt;Pila* / Nodo**&lt;/font&gt;" style="text;html=1;resizable=0;points=[];autosize=1;align=left;verticalAlign=top;spacingTop=-4;fontFamily=Courier New;" parent="1" vertex="1">
          <mxGeometry x="643" y="225.0459770114942" width="120" height="20" as="geometry" />
        </mxCell>
        <mxCell id="VzSruJw_X9b5pIAjGCg9-51" value="pp" style="text;html=1;resizable=0;points=[];autosize=1;align=left;verticalAlign=top;spacingTop=-4;fontFamily=Courier New;" parent="1" vertex="1">
          <mxGeometry x="642.5" y="245.0459770114942" width="30" height="20" as="geometry" />
        </mxCell>
        <mxCell id="VzSruJw_X9b5pIAjGCg9-59" style="edgeStyle=orthogonalEdgeStyle;rounded=0;orthogonalLoop=1;jettySize=auto;html=1;exitX=1;exitY=0.5;exitDx=0;exitDy=0;entryX=0.5;entryY=0;entryDx=0;entryDy=0;fontFamily=Courier New;strokeWidth=2;" parent="1" source="VzSruJw_X9b5pIAjGCg9-77" target="VzSruJw_X9b5pIAjGCg9-68" edge="1">
          <mxGeometry relative="1" as="geometry" />
        </mxCell>
        <mxCell id="VzSruJw_X9b5pIAjGCg9-64" style="edgeStyle=orthogonalEdgeStyle;rounded=0;orthogonalLoop=1;jettySize=auto;html=1;entryX=1;entryY=0.5;entryDx=0;entryDy=0;" parent="1" source="VzSruJw_X9b5pIAjGCg9-65" target="VzSruJw_X9b5pIAjGCg9-66" edge="1">
          <mxGeometry relative="1" as="geometry" />
        </mxCell>
        <mxCell id="VzSruJw_X9b5pIAjGCg9-65" value="" style="rounded=0;whiteSpace=wrap;html=1;" parent="1" vertex="1">
          <mxGeometry x="351.5" y="1543.01724137931" width="43" height="60" as="geometry" />
        </mxCell>
        <mxCell id="VzSruJw_X9b5pIAjGCg9-66" value="7" style="rounded=0;whiteSpace=wrap;html=1;" parent="1" vertex="1">
          <mxGeometry x="274.32" y="1543.01724137931" width="42" height="60" as="geometry" />
        </mxCell>
        <mxCell id="VzSruJw_X9b5pIAjGCg9-67" value="X" style="rounded=0;whiteSpace=wrap;html=1;" parent="1" vertex="1">
          <mxGeometry x="431" y="1543.01724137931" width="40" height="60" as="geometry" />
        </mxCell>
        <mxCell id="VzSruJw_X9b5pIAjGCg9-68" value="4" style="rounded=0;whiteSpace=wrap;html=1;" parent="1" vertex="1">
          <mxGeometry x="391" y="1543.01724137931" width="40" height="60" as="geometry" />
        </mxCell>
        <mxCell id="ddpkEbkREBOrUjTEoc_Z-3" style="edgeStyle=orthogonalEdgeStyle;rounded=0;orthogonalLoop=1;jettySize=auto;html=1;exitX=0.5;exitY=1;exitDx=0;exitDy=0;entryX=0.5;entryY=0;entryDx=0;entryDy=0;strokeWidth=2;dashed=1;" parent="1" source="VzSruJw_X9b5pIAjGCg9-70" target="VzSruJw_X9b5pIAjGCg9-101" edge="1">
          <mxGeometry relative="1" as="geometry" />
        </mxCell>
        <mxCell id="UUmBQIanD07gFp9sYFJJ-15" style="edgeStyle=orthogonalEdgeStyle;rounded=0;orthogonalLoop=1;jettySize=auto;html=1;exitX=1;exitY=0.5;exitDx=0;exitDy=0;entryX=0.75;entryY=0;entryDx=0;entryDy=0;fillColor=#e51400;strokeColor=#B20000;strokeWidth=2;" edge="1" parent="1" source="VzSruJw_X9b5pIAjGCg9-70" target="UUmBQIanD07gFp9sYFJJ-3">
          <mxGeometry relative="1" as="geometry">
            <Array as="points">
              <mxPoint x="534" y="938" />
              <mxPoint x="534" y="1015" />
              <mxPoint x="565" y="1015" />
            </Array>
          </mxGeometry>
        </mxCell>
        <mxCell id="VzSruJw_X9b5pIAjGCg9-70" value="CC04" style="rounded=0;whiteSpace=wrap;html=1;" parent="1" vertex="1">
          <mxGeometry x="388.21999999999997" y="908.49724137931" width="40" height="60" as="geometry" />
        </mxCell>
        <mxCell id="VzSruJw_X9b5pIAjGCg9-71" value="pila" style="text;html=1;resizable=0;points=[];autosize=1;align=left;verticalAlign=top;spacingTop=-4;fontFamily=Courier New;fontSize=16;" parent="1" vertex="1">
          <mxGeometry x="388.71999999999997" y="846.99724137931" width="30" height="20" as="geometry" />
        </mxCell>
        <mxCell id="VzSruJw_X9b5pIAjGCg9-72" value="Nodo*" style="text;html=1;resizable=0;points=[];autosize=1;align=left;verticalAlign=top;spacingTop=-4;fontFamily=Courier New;fontSize=16;" parent="1" vertex="1">
          <mxGeometry x="388.71999999999997" y="826.99724137931" width="50" height="20" as="geometry" />
        </mxCell>
        <mxCell id="VzSruJw_X9b5pIAjGCg9-85" style="edgeStyle=orthogonalEdgeStyle;rounded=0;orthogonalLoop=1;jettySize=auto;html=1;exitX=1;exitY=0.5;exitDx=0;exitDy=0;entryX=0.5;entryY=0;entryDx=0;entryDy=0;strokeWidth=2;" parent="1" source="VzSruJw_X9b5pIAjGCg9-83" target="VzSruJw_X9b5pIAjGCg9-78" edge="1">
          <mxGeometry relative="1" as="geometry" />
        </mxCell>
        <mxCell id="VzSruJw_X9b5pIAjGCg9-89" style="edgeStyle=orthogonalEdgeStyle;rounded=0;orthogonalLoop=1;jettySize=auto;html=1;exitX=0;exitY=0.5;exitDx=0;exitDy=0;entryX=0.5;entryY=0;entryDx=0;entryDy=0;strokeWidth=2;" parent="1" source="VzSruJw_X9b5pIAjGCg9-90" target="VzSruJw_X9b5pIAjGCg9-70" edge="1">
          <mxGeometry relative="1" as="geometry">
            <Array as="points">
              <mxPoint x="340.71999999999997" y="793.98" />
              <mxPoint x="340.71999999999997" y="891.98" />
              <mxPoint x="408.71999999999997" y="891.98" />
            </Array>
          </mxGeometry>
        </mxCell>
        <mxCell id="VzSruJw_X9b5pIAjGCg9-90" value="FC08" style="ellipse;whiteSpace=wrap;html=1;aspect=fixed;strokeWidth=1;" parent="1" vertex="1">
          <mxGeometry x="363.71999999999997" y="764.49724137931" width="60" height="60" as="geometry" />
        </mxCell>
        <mxCell id="VzSruJw_X9b5pIAjGCg9-91" value="Pila*" style="text;html=1;resizable=0;points=[];autosize=1;align=left;verticalAlign=top;spacingTop=-4;" parent="1" vertex="1">
          <mxGeometry x="370.21999999999997" y="701.99724137931" width="40" height="20" as="geometry" />
        </mxCell>
        <mxCell id="VzSruJw_X9b5pIAjGCg9-92" value="pp" style="text;html=1;resizable=0;points=[];autosize=1;align=left;verticalAlign=top;spacingTop=-4;fontFamily=Courier New;" parent="1" vertex="1">
          <mxGeometry x="369.71999999999997" y="721.99724137931" width="30" height="20" as="geometry" />
        </mxCell>
        <mxCell id="VzSruJw_X9b5pIAjGCg9-93" value="Nodo**" style="text;html=1;resizable=0;points=[];autosize=1;align=left;verticalAlign=top;spacingTop=-4;" parent="1" vertex="1">
          <mxGeometry x="399.71999999999997" y="701.99724137931" width="50" height="20" as="geometry" />
        </mxCell>
        <mxCell id="VzSruJw_X9b5pIAjGCg9-94" value="FC08" style="text;html=1;resizable=0;points=[];autosize=1;align=left;verticalAlign=top;spacingTop=-4;fontFamily=Courier New;fontSize=16;" parent="1" vertex="1">
          <mxGeometry x="386.21999999999997" y="866.99724137931" width="40" height="20" as="geometry" />
        </mxCell>
        <mxCell id="VzSruJw_X9b5pIAjGCg9-95" value="FA04" style="text;html=1;resizable=0;points=[];autosize=1;align=left;verticalAlign=top;spacingTop=-4;" parent="1" vertex="1">
          <mxGeometry x="358.5" y="1292.01724137931" width="40" height="20" as="geometry" />
        </mxCell>
        <mxCell id="VzSruJw_X9b5pIAjGCg9-96" value="FB1C" style="text;html=1;resizable=0;points=[];autosize=1;align=left;verticalAlign=top;spacingTop=-4;" parent="1" vertex="1">
          <mxGeometry x="369.71999999999997" y="741.99724137931" width="50" height="20" as="geometry" />
        </mxCell>
        <mxCell id="VzSruJw_X9b5pIAjGCg9-103" value="8" style="rounded=0;whiteSpace=wrap;html=1;" parent="1" vertex="1">
          <mxGeometry x="577.718204488778" y="1269.01724137931" width="39.381546134663346" height="60" as="geometry" />
        </mxCell>
        <mxCell id="VzSruJw_X9b5pIAjGCg9-104" style="edgeStyle=orthogonalEdgeStyle;rounded=0;orthogonalLoop=1;jettySize=auto;html=1;exitX=0.5;exitY=1;exitDx=0;exitDy=0;entryX=0.5;entryY=0;entryDx=0;entryDy=0;" parent="1" source="VzSruJw_X9b5pIAjGCg9-105" target="VzSruJw_X9b5pIAjGCg9-103" edge="1">
          <mxGeometry relative="1" as="geometry" />
        </mxCell>
        <mxCell id="VzSruJw_X9b5pIAjGCg9-105" value="" style="rounded=0;whiteSpace=wrap;html=1;" parent="1" vertex="1">
          <mxGeometry x="577.5" y="1177.01724137931" width="40" height="60" as="geometry" />
        </mxCell>
        <mxCell id="VzSruJw_X9b5pIAjGCg9-106" value="&lt;font face=&quot;Courier New&quot;&gt;void* elem&lt;/font&gt;" style="text;html=1;resizable=0;points=[];autosize=1;align=left;verticalAlign=top;spacingTop=-4;" parent="1" vertex="1">
          <mxGeometry x="574" y="1157.01724137931" width="82" height="15" as="geometry" />
        </mxCell>
        <mxCell id="VzSruJw_X9b5pIAjGCg9-107" style="edgeStyle=orthogonalEdgeStyle;rounded=0;orthogonalLoop=1;jettySize=auto;html=1;exitX=1;exitY=0.5;exitDx=0;exitDy=0;entryX=0.25;entryY=0;entryDx=0;entryDy=0;fillColor=#e51400;strokeColor=#FFFFFF;strokeWidth=2;" parent="1" source="VzSruJw_X9b5pIAjGCg9-100" target="VzSruJw_X9b5pIAjGCg9-84" edge="1">
          <mxGeometry relative="1" as="geometry" />
        </mxCell>
        <mxCell id="VzSruJw_X9b5pIAjGCg9-108" value="FA24" style="text;html=1;resizable=0;points=[];autosize=1;align=left;verticalAlign=top;spacingTop=-4;" parent="1" vertex="1">
          <mxGeometry x="275.41" y="1143.01724137931" width="40" height="20" as="geometry" />
        </mxCell>
        <mxCell id="VzSruJw_X9b5pIAjGCg9-109" value="BA18" style="text;html=1;resizable=0;points=[];autosize=1;align=left;verticalAlign=top;spacingTop=-4;" parent="1" vertex="1">
          <mxGeometry x="353" y="1142.01724137931" width="40" height="20" as="geometry" />
        </mxCell>
        <mxCell id="VzSruJw_X9b5pIAjGCg9-111" value="2" style="ellipse;whiteSpace=wrap;html=1;aspect=fixed;fillColor=#e51400;strokeColor=#B20000;fontColor=#ffffff;" parent="1" vertex="1">
          <mxGeometry x="813" y="1183.99724137931" width="35" height="35" as="geometry" />
        </mxCell>
        <mxCell id="VzSruJw_X9b5pIAjGCg9-117" value="Apilar" style="text;html=1;resizable=0;points=[];autosize=1;align=left;verticalAlign=top;spacingTop=-4;fontFamily=Courier New;fontSize=23;fontStyle=1" parent="1" vertex="1">
          <mxGeometry x="358" y="644.9999999999998" width="93" height="28" as="geometry" />
        </mxCell>
        <mxCell id="VzSruJw_X9b5pIAjGCg9-113" value="1" style="ellipse;whiteSpace=wrap;html=1;aspect=fixed;fillColor=#e51400;strokeColor=#B20000;fontColor=#ffffff;" parent="1" vertex="1">
          <mxGeometry x="726" y="386.9956321839079" width="35" height="35" as="geometry" />
        </mxCell>
        <mxCell id="VzSruJw_X9b5pIAjGCg9-115" value="2" style="ellipse;whiteSpace=wrap;html=1;aspect=fixed;fillColor=#e51400;strokeColor=#B20000;fontColor=#ffffff;" parent="1" vertex="1">
          <mxGeometry x="726" y="430.2556321839079" width="35" height="35" as="geometry" />
        </mxCell>
        <mxCell id="VzSruJw_X9b5pIAjGCg9-98" style="edgeStyle=orthogonalEdgeStyle;rounded=0;orthogonalLoop=1;jettySize=auto;html=1;exitX=0;exitY=0.5;exitDx=0;exitDy=0;entryX=1;entryY=0.5;entryDx=0;entryDy=0;strokeWidth=2;" parent="1" source="VzSruJw_X9b5pIAjGCg9-99" target="VzSruJw_X9b5pIAjGCg9-102" edge="1">
          <mxGeometry relative="1" as="geometry" />
        </mxCell>
        <mxCell id="VzSruJw_X9b5pIAjGCg9-99" value="FA24" style="rounded=0;whiteSpace=wrap;html=1;" parent="1" vertex="1">
          <mxGeometry x="352.85660847880297" y="1163.01724137931" width="40.31920199501247" height="60" as="geometry" />
        </mxCell>
        <mxCell id="VzSruJw_X9b5pIAjGCg9-100" value="FA04" style="rounded=0;whiteSpace=wrap;html=1;" parent="1" vertex="1">
          <mxGeometry x="427.4002493765586" y="1163.01724137931" width="37.50623441396509" height="60" as="geometry" />
        </mxCell>
        <mxCell id="VzSruJw_X9b5pIAjGCg9-101" value="4" style="rounded=0;whiteSpace=wrap;html=1;" parent="1" vertex="1">
          <mxGeometry x="389.89401496259353" y="1163.01724137931" width="37.50623441396509" height="60" as="geometry" />
        </mxCell>
        <mxCell id="VzSruJw_X9b5pIAjGCg9-102" value="5" style="rounded=0;whiteSpace=wrap;html=1;" parent="1" vertex="1">
          <mxGeometry x="275.62820448877807" y="1163.01724137931" width="39.381546134663346" height="60" as="geometry" />
        </mxCell>
        <mxCell id="VzSruJw_X9b5pIAjGCg9-119" value="CC04" style="text;html=1;resizable=0;points=[];autosize=1;align=left;verticalAlign=top;spacingTop=-4;" parent="1" vertex="1">
          <mxGeometry x="876.1700000000001" y="783.97724137931" width="50" height="20" as="geometry" />
        </mxCell>
        <mxCell id="VzSruJw_X9b5pIAjGCg9-127" value="" style="edgeStyle=orthogonalEdgeStyle;rounded=0;orthogonalLoop=1;jettySize=auto;html=1;strokeColor=#FFFFFF;strokeWidth=2;fontFamily=Courier New;" parent="1" source="VzSruJw_X9b5pIAjGCg9-120" target="VzSruJw_X9b5pIAjGCg9-126" edge="1">
          <mxGeometry relative="1" as="geometry" />
        </mxCell>
        <mxCell id="VzSruJw_X9b5pIAjGCg9-120" value="DC80" style="rounded=0;whiteSpace=wrap;html=1;" parent="1" vertex="1">
          <mxGeometry x="876.0266084788029" y="804.97724137931" width="40.31920199501247" height="60" as="geometry" />
        </mxCell>
        <mxCell id="VzSruJw_X9b5pIAjGCg9-121" value="BA18" style="rounded=0;whiteSpace=wrap;html=1;" parent="1" vertex="1">
          <mxGeometry x="950.5702493765586" y="804.97724137931" width="37.50623441396509" height="60" as="geometry" />
        </mxCell>
        <mxCell id="VzSruJw_X9b5pIAjGCg9-122" value="4" style="rounded=0;whiteSpace=wrap;html=1;" parent="1" vertex="1">
          <mxGeometry x="913.0640149625935" y="804.97724137931" width="37.50623441396509" height="60" as="geometry" />
        </mxCell>
        <mxCell id="5fLwKf1DJulYo1z8NdqT-26" style="edgeStyle=orthogonalEdgeStyle;rounded=0;orthogonalLoop=1;jettySize=auto;html=1;exitX=0.5;exitY=1;exitDx=0;exitDy=0;strokeWidth=2;fontFamily=Courier New;entryX=0.75;entryY=0;entryDx=0;entryDy=0;" parent="1" source="VzSruJw_X9b5pIAjGCg9-123" target="VzSruJw_X9b5pIAjGCg9-122" edge="1">
          <mxGeometry relative="1" as="geometry">
            <mxPoint x="470.5033333333335" y="744.646666666667" as="sourcePoint" />
          </mxGeometry>
        </mxCell>
        <mxCell id="VzSruJw_X9b5pIAjGCg9-123" value="CC04" style="rounded=0;whiteSpace=wrap;html=1;" parent="1" vertex="1">
          <mxGeometry x="920.9600000000002" y="657" width="40" height="67" as="geometry" />
        </mxCell>
        <mxCell id="VzSruJw_X9b5pIAjGCg9-124" value="Nodo* nue" style="text;html=1;resizable=0;points=[];autosize=1;align=left;verticalAlign=top;spacingTop=-4;fontFamily=Courier New;" parent="1" vertex="1">
          <mxGeometry x="920.9600000000002" y="636.9999999999998" width="80" height="20" as="geometry" />
        </mxCell>
        <mxCell id="VzSruJw_X9b5pIAjGCg9-126" value="8" style="rounded=0;whiteSpace=wrap;html=1;" parent="1" vertex="1">
          <mxGeometry x="800.388204488778" y="804.97724137931" width="39.381546134663346" height="60" as="geometry" />
        </mxCell>
        <mxCell id="VzSruJw_X9b5pIAjGCg9-128" value="DC80" style="text;html=1;resizable=0;points=[];autosize=1;align=left;verticalAlign=top;spacingTop=-4;fontFamily=Courier New;" parent="1" vertex="1">
          <mxGeometry x="790.6700000000001" y="784.9799999999998" width="40" height="20" as="geometry" />
        </mxCell>
        <mxCell id="VzSruJw_X9b5pIAjGCg9-110" value="1" style="ellipse;whiteSpace=wrap;html=1;aspect=fixed;fillColor=#e51400;strokeColor=#B20000;fontColor=#ffffff;" parent="1" vertex="1">
          <mxGeometry x="813" y="1143.01724137931" width="35" height="35" as="geometry" />
        </mxCell>
        <mxCell id="VzSruJw_X9b5pIAjGCg9-131" value="nue-&amp;gt;sig = *pp;" style="text;html=1;resizable=0;points=[];autosize=1;align=left;verticalAlign=top;spacingTop=-4;fontFamily=Courier New;" parent="1" vertex="1">
          <mxGeometry x="764" y="394.44011494252874" width="120" height="20" as="geometry" />
        </mxCell>
        <mxCell id="VzSruJw_X9b5pIAjGCg9-133" value="*pp = nue;" style="text;html=1;resizable=0;points=[];autosize=1;align=left;verticalAlign=top;spacingTop=-4;fontFamily=Courier New;" parent="1" vertex="1">
          <mxGeometry x="764" y="437.7901149425287" width="90" height="20" as="geometry" />
        </mxCell>
        <mxCell id="VzSruJw_X9b5pIAjGCg9-136" value="CC04" style="text;html=1;resizable=0;points=[];autosize=1;align=left;verticalAlign=top;spacingTop=-4;" parent="1" vertex="1">
          <mxGeometry x="417.64" y="420.06321839080454" width="50" height="20" as="geometry" />
        </mxCell>
        <mxCell id="vnGXNr5x_kphjXObbJ1g-7" style="edgeStyle=orthogonalEdgeStyle;rounded=0;orthogonalLoop=1;jettySize=auto;html=1;exitX=0;exitY=0.5;exitDx=0;exitDy=0;" parent="1" source="VzSruJw_X9b5pIAjGCg9-138" target="VzSruJw_X9b5pIAjGCg9-144" edge="1">
          <mxGeometry relative="1" as="geometry" />
        </mxCell>
        <mxCell id="VzSruJw_X9b5pIAjGCg9-138" value="DC80" style="rounded=0;whiteSpace=wrap;html=1;" parent="1" vertex="1">
          <mxGeometry x="417.49660847880295" y="441.06321839080454" width="40.31920199501247" height="60" as="geometry" />
        </mxCell>
        <mxCell id="VzSruJw_X9b5pIAjGCg9-139" value="X" style="rounded=0;whiteSpace=wrap;html=1;fontColor=#FF0000;" parent="1" vertex="1">
          <mxGeometry x="492.04024937655856" y="441.06321839080454" width="37.50623441396509" height="60" as="geometry" />
        </mxCell>
        <mxCell id="VzSruJw_X9b5pIAjGCg9-140" value="4" style="rounded=0;whiteSpace=wrap;html=1;" parent="1" vertex="1">
          <mxGeometry x="454.53401496259346" y="441.06321839080454" width="37.50623441396509" height="60" as="geometry" />
        </mxCell>
        <mxCell id="VzSruJw_X9b5pIAjGCg9-141" style="edgeStyle=orthogonalEdgeStyle;rounded=0;orthogonalLoop=1;jettySize=auto;html=1;entryX=0.5;entryY=0;entryDx=0;entryDy=0;strokeColor=#FFFFFF;fontFamily=Courier New;strokeWidth=2;exitX=0.5;exitY=1;exitDx=0;exitDy=0;" parent="1" source="VzSruJw_X9b5pIAjGCg9-142" target="VzSruJw_X9b5pIAjGCg9-140" edge="1">
          <mxGeometry relative="1" as="geometry">
            <mxPoint x="559" y="423.0459770114943" as="sourcePoint" />
            <Array as="points">
              <mxPoint x="554" y="422.0459770114943" />
              <mxPoint x="474" y="422.0459770114943" />
            </Array>
          </mxGeometry>
        </mxCell>
        <mxCell id="VzSruJw_X9b5pIAjGCg9-142" value="CC04" style="rounded=0;whiteSpace=wrap;html=1;" parent="1" vertex="1">
          <mxGeometry x="533" y="343.56321839080454" width="40" height="60" as="geometry" />
        </mxCell>
        <mxCell id="VzSruJw_X9b5pIAjGCg9-143" value="Nodo* nue" style="text;html=1;resizable=0;points=[];autosize=1;align=left;verticalAlign=top;spacingTop=-4;fontFamily=Courier New;" parent="1" vertex="1">
          <mxGeometry x="534.5" y="323.5459770114943" width="80" height="20" as="geometry" />
        </mxCell>
        <mxCell id="VzSruJw_X9b5pIAjGCg9-144" value="8" style="rounded=0;whiteSpace=wrap;html=1;" parent="1" vertex="1">
          <mxGeometry x="318.81820448877806" y="441.06321839080454" width="39.381546134663346" height="60" as="geometry" />
        </mxCell>
        <mxCell id="VzSruJw_X9b5pIAjGCg9-145" value="DC80" style="text;html=1;resizable=0;points=[];autosize=1;align=left;verticalAlign=top;spacingTop=-4;fontFamily=Courier New;" parent="1" vertex="1">
          <mxGeometry x="318.6" y="425.0459770114943" width="40" height="20" as="geometry" />
        </mxCell>
        <mxCell id="VzSruJw_X9b5pIAjGCg9-148" value="Desapilar" style="text;html=1;resizable=0;points=[];autosize=1;align=left;verticalAlign=top;spacingTop=-4;fontFamily=Courier New;fontSize=23;fontStyle=1" parent="1" vertex="1">
          <mxGeometry x="319.82" y="2274.9966666666664" width="142" height="34" as="geometry" />
        </mxCell>
        <mxCell id="1jXVWYmQ-CDgsmhZdw6f-92" value="1" style="ellipse;whiteSpace=wrap;html=1;aspect=fixed;fillColor=#e51400;strokeColor=#B20000;fontColor=#ffffff;" parent="1" vertex="1">
          <mxGeometry x="839.77" y="2614.8045977011493" width="35" height="35" as="geometry" />
        </mxCell>
        <mxCell id="1jXVWYmQ-CDgsmhZdw6f-94" value="2" style="ellipse;whiteSpace=wrap;html=1;aspect=fixed;fillColor=#e51400;strokeColor=#B20000;fontColor=#ffffff;" parent="1" vertex="1">
          <mxGeometry x="839.77" y="2670.8045977011493" width="35" height="35" as="geometry" />
        </mxCell>
        <mxCell id="1jXVWYmQ-CDgsmhZdw6f-57" style="edgeStyle=orthogonalEdgeStyle;rounded=0;orthogonalLoop=1;jettySize=auto;html=1;exitX=0;exitY=0.5;exitDx=0;exitDy=0;entryX=1;entryY=0.5;entryDx=0;entryDy=0;labelBackgroundColor=none;strokeWidth=2;" parent="1" source="1jXVWYmQ-CDgsmhZdw6f-45" target="1jXVWYmQ-CDgsmhZdw6f-56" edge="1">
          <mxGeometry relative="1" as="geometry" />
        </mxCell>
        <mxCell id="1jXVWYmQ-CDgsmhZdw6f-45" value="FA24" style="rounded=0;whiteSpace=wrap;html=1;fillColor=none;strokeColor=#FFFFFF;labelBackgroundColor=none;strokeWidth=1;" parent="1" vertex="1">
          <mxGeometry x="336.35660847880297" y="2637.8045977011493" width="40.31920199501247" height="60" as="geometry" />
        </mxCell>
        <mxCell id="1jXVWYmQ-CDgsmhZdw6f-47" value="FA04" style="rounded=0;whiteSpace=wrap;html=1;fillColor=none;strokeColor=#FFFFFF;labelBackgroundColor=none;strokeWidth=1;" parent="1" vertex="1">
          <mxGeometry x="415.0102493765586" y="2637.8045977011493" width="37.50623441396509" height="60" as="geometry" />
        </mxCell>
        <mxCell id="1jXVWYmQ-CDgsmhZdw6f-48" value="4" style="rounded=0;whiteSpace=wrap;html=1;fillColor=none;strokeColor=#FFFFFF;labelBackgroundColor=none;strokeWidth=1;" parent="1" vertex="1">
          <mxGeometry x="377.50401496259354" y="2637.8045977011493" width="37.50623441396509" height="60" as="geometry" />
        </mxCell>
        <mxCell id="1jXVWYmQ-CDgsmhZdw6f-56" value="5" style="rounded=0;whiteSpace=wrap;html=1;fillColor=none;strokeColor=#FFFFFF;labelBackgroundColor=none;strokeWidth=1;" parent="1" vertex="1">
          <mxGeometry x="263.21820448877804" y="2637.8045977011493" width="39.381546134663346" height="60" as="geometry" />
        </mxCell>
        <mxCell id="VzSruJw_X9b5pIAjGCg9-150" value="nae = *pp;" style="text;html=1;resizable=0;points=[];autosize=1;align=left;verticalAlign=top;spacingTop=-4;fontFamily=Courier New;fontSize=16;" parent="1" vertex="1">
          <mxGeometry x="878.77" y="2622.1666666666665" width="106" height="19" as="geometry" />
        </mxCell>
        <mxCell id="VzSruJw_X9b5pIAjGCg9-151" value="*pp = nae-&amp;gt;sig;" style="text;html=1;resizable=0;points=[];autosize=1;align=left;verticalAlign=top;spacingTop=-4;fontFamily=Courier New;fontSize=16;" parent="1" vertex="1">
          <mxGeometry x="876.77" y="2680.1666666666665" width="154" height="19" as="geometry" />
        </mxCell>
        <mxCell id="CUOggQJLTnRWmichhhx5-1" value="" style="rounded=0;whiteSpace=wrap;html=1;" parent="1" vertex="1">
          <mxGeometry x="344" y="2907.8045977011493" width="43" height="60" as="geometry" />
        </mxCell>
        <mxCell id="CUOggQJLTnRWmichhhx5-2" value="3" style="rounded=0;whiteSpace=wrap;html=1;" parent="1" vertex="1">
          <mxGeometry x="263" y="2907.8045977011493" width="42" height="60" as="geometry" />
        </mxCell>
        <mxCell id="CUOggQJLTnRWmichhhx5-26" style="edgeStyle=orthogonalEdgeStyle;rounded=0;orthogonalLoop=1;jettySize=auto;html=1;entryX=1;entryY=0.5;entryDx=0;entryDy=0;strokeWidth=2;" parent="1" source="CUOggQJLTnRWmichhhx5-1" target="CUOggQJLTnRWmichhhx5-2" edge="1">
          <mxGeometry relative="1" as="geometry" />
        </mxCell>
        <mxCell id="CUOggQJLTnRWmichhhx5-5" value="" style="rounded=0;whiteSpace=wrap;html=1;" parent="1" vertex="1">
          <mxGeometry x="423.5" y="2907.8045977011493" width="40" height="60" as="geometry" />
        </mxCell>
        <mxCell id="CUOggQJLTnRWmichhhx5-29" value="4" style="rounded=0;whiteSpace=wrap;html=1;" parent="1" vertex="1">
          <mxGeometry x="383.5" y="2907.8045977011493" width="40" height="60" as="geometry" />
        </mxCell>
        <mxCell id="1jXVWYmQ-CDgsmhZdw6f-19" style="edgeStyle=orthogonalEdgeStyle;rounded=0;orthogonalLoop=1;jettySize=auto;html=1;exitX=0;exitY=0.5;exitDx=0;exitDy=0;entryX=1;entryY=0.5;entryDx=0;entryDy=0;strokeWidth=2;" parent="1" source="1jXVWYmQ-CDgsmhZdw6f-7" target="1jXVWYmQ-CDgsmhZdw6f-8" edge="1">
          <mxGeometry relative="1" as="geometry" />
        </mxCell>
        <mxCell id="1jXVWYmQ-CDgsmhZdw6f-7" value="" style="rounded=0;whiteSpace=wrap;html=1;" parent="1" vertex="1">
          <mxGeometry x="341.35660847880297" y="2786.8045977011493" width="40.31920199501247" height="60" as="geometry" />
        </mxCell>
        <mxCell id="1jXVWYmQ-CDgsmhZdw6f-8" value="1" style="rounded=0;whiteSpace=wrap;html=1;" parent="1" vertex="1">
          <mxGeometry x="259.21820448877804" y="2786.3045977011493" width="39.381546134663346" height="60" as="geometry" />
        </mxCell>
        <mxCell id="1jXVWYmQ-CDgsmhZdw6f-10" value="" style="rounded=0;whiteSpace=wrap;html=1;" parent="1" vertex="1">
          <mxGeometry x="415.9002493765586" y="2786.8045977011493" width="37.50623441396509" height="60" as="geometry" />
        </mxCell>
        <mxCell id="1jXVWYmQ-CDgsmhZdw6f-11" value="4" style="rounded=0;whiteSpace=wrap;html=1;" parent="1" vertex="1">
          <mxGeometry x="378.39401496259353" y="2786.8045977011493" width="37.50623441396509" height="60" as="geometry" />
        </mxCell>
        <mxCell id="1jXVWYmQ-CDgsmhZdw6f-71" style="edgeStyle=orthogonalEdgeStyle;rounded=0;orthogonalLoop=1;jettySize=auto;html=1;exitX=0;exitY=0.5;exitDx=0;exitDy=0;entryX=1;entryY=0.5;entryDx=0;entryDy=0;fillColor=#eeeeee;strokeColor=#FFFFFF;" parent="1" source="1jXVWYmQ-CDgsmhZdw6f-72" target="1jXVWYmQ-CDgsmhZdw6f-75" edge="1">
          <mxGeometry relative="1" as="geometry" />
        </mxCell>
        <mxCell id="1jXVWYmQ-CDgsmhZdw6f-72" value="FA24" style="rounded=0;whiteSpace=wrap;html=1;fillColor=none;strokeColor=#FFFFFF;" parent="1" vertex="1">
          <mxGeometry x="438.35660847880297" y="3663.1666666666665" width="40.31920199501247" height="60" as="geometry" />
        </mxCell>
        <mxCell id="1jXVWYmQ-CDgsmhZdw6f-73" value="X" style="rounded=0;whiteSpace=wrap;html=1;fillColor=none;strokeColor=#FFFFFF;" parent="1" vertex="1">
          <mxGeometry x="516.5002493765586" y="3663.1666666666665" width="37.50623441396509" height="60" as="geometry" />
        </mxCell>
        <mxCell id="1jXVWYmQ-CDgsmhZdw6f-74" value="4" style="rounded=0;whiteSpace=wrap;html=1;fillColor=none;strokeColor=#FFFFFF;" parent="1" vertex="1">
          <mxGeometry x="478.9940149625935" y="3663.1666666666665" width="37.50623441396509" height="60" as="geometry" />
        </mxCell>
        <mxCell id="1jXVWYmQ-CDgsmhZdw6f-75" value="5" style="rounded=0;whiteSpace=wrap;html=1;fillColor=none;strokeColor=#FFFFFF;" parent="1" vertex="1">
          <mxGeometry x="365.21820448877804" y="3663.1666666666665" width="39.381546134663346" height="60" as="geometry" />
        </mxCell>
        <mxCell id="DogAiKTYdXcOURNrDC-U-1" value="FC18" style="text;html=1;resizable=0;points=[];autosize=1;align=left;verticalAlign=top;spacingTop=-4;fontFamily=Courier New;" parent="1" vertex="1">
          <mxGeometry x="451" y="-1004" width="40" height="20" as="geometry" />
        </mxCell>
        <mxCell id="DogAiKTYdXcOURNrDC-U-3" value="X" style="rounded=0;whiteSpace=wrap;html=1;" parent="1" vertex="1">
          <mxGeometry x="515" y="-474" width="39.67" height="59.88" as="geometry" />
        </mxCell>
        <mxCell id="DogAiKTYdXcOURNrDC-U-4" value="pila" style="text;html=1;resizable=0;points=[];autosize=1;align=left;verticalAlign=top;spacingTop=-4;fontFamily=Courier New;fontSize=15;" parent="1" vertex="1">
          <mxGeometry x="515.1666666666666" y="-515.1206896551724" width="30" height="20" as="geometry" />
        </mxCell>
        <mxCell id="DogAiKTYdXcOURNrDC-U-5" value="Pila / Nodo*" style="text;html=1;resizable=0;points=[];autosize=1;align=left;verticalAlign=top;spacingTop=-4;fontFamily=Courier New;fontSize=15;" parent="1" vertex="1">
          <mxGeometry x="515.1666666666666" y="-535.1206896551724" width="80" height="20" as="geometry" />
        </mxCell>
        <mxCell id="DogAiKTYdXcOURNrDC-U-6" style="edgeStyle=orthogonalEdgeStyle;rounded=0;orthogonalLoop=1;jettySize=auto;html=1;exitX=0;exitY=0.5;exitDx=0;exitDy=0;entryX=1;entryY=0.5;entryDx=0;entryDy=0;" parent="1" source="DogAiKTYdXcOURNrDC-U-11" target="DogAiKTYdXcOURNrDC-U-3" edge="1">
          <mxGeometry relative="1" as="geometry" />
        </mxCell>
        <mxCell id="DogAiKTYdXcOURNrDC-U-7" value="FC08" style="text;html=1;resizable=0;points=[];autosize=1;align=left;verticalAlign=top;spacingTop=-4;fontFamily=Courier New;fontSize=15;" parent="1" vertex="1">
          <mxGeometry x="514.6666666666666" y="-498.00068965517244" width="40" height="20" as="geometry" />
        </mxCell>
        <mxCell id="DogAiKTYdXcOURNrDC-U-8" value="" style="endArrow=none;html=1;curved=1;" parent="1" edge="1">
          <mxGeometry width="50" height="50" relative="1" as="geometry">
            <mxPoint x="266.66666666666663" y="-374.0000000000002" as="sourcePoint" />
            <mxPoint x="816.6666666666669" y="-473" as="targetPoint" />
            <Array as="points">
              <mxPoint x="646.6666666666666" y="-374" />
            </Array>
          </mxGeometry>
        </mxCell>
        <mxCell id="DogAiKTYdXcOURNrDC-U-9" value="main()" style="text;html=1;resizable=0;points=[];autosize=1;align=left;verticalAlign=top;spacingTop=-4;fontFamily=Courier New;fontSize=15;" parent="1" vertex="1">
          <mxGeometry x="303.16666666666663" y="-464" width="72" height="24" as="geometry" />
        </mxCell>
        <mxCell id="DogAiKTYdXcOURNrDC-U-10" value="&lt;font face=&quot;Courier New&quot; style=&quot;font-size: 15px;&quot;&gt;crearPila()&lt;/font&gt;" style="text;html=1;resizable=0;points=[];autosize=1;align=left;verticalAlign=top;spacingTop=-4;fontSize=15;" parent="1" vertex="1">
          <mxGeometry x="311.66666666666663" y="-354" width="90" height="20" as="geometry" />
        </mxCell>
        <mxCell id="DogAiKTYdXcOURNrDC-U-11" value="&lt;font face=&quot;Courier New&quot; style=&quot;font-size: 15px&quot;&gt;FC08&lt;/font&gt;" style="ellipse;whiteSpace=wrap;html=1;aspect=fixed;" parent="1" vertex="1">
          <mxGeometry x="617.6666666666666" y="-374.12068965517244" width="60" height="60" as="geometry" />
        </mxCell>
        <mxCell id="DogAiKTYdXcOURNrDC-U-12" value="&lt;font style=&quot;font-size: 15px;&quot;&gt;Pila* / Nodo**&lt;/font&gt;" style="text;html=1;resizable=0;points=[];autosize=1;align=left;verticalAlign=top;spacingTop=-4;fontFamily=Courier New;fontSize=15;" parent="1" vertex="1">
          <mxGeometry x="637.1666666666666" y="-414.12068965517244" width="120" height="20" as="geometry" />
        </mxCell>
        <mxCell id="DogAiKTYdXcOURNrDC-U-13" value="pp" style="text;html=1;resizable=0;points=[];autosize=1;align=left;verticalAlign=top;spacingTop=-4;fontFamily=Courier New;fontSize=15;" parent="1" vertex="1">
          <mxGeometry x="637.1666666666666" y="-394.12068965517244" width="30" height="20" as="geometry" />
        </mxCell>
        <mxCell id="DogAiKTYdXcOURNrDC-U-32" value="8" style="rounded=0;whiteSpace=wrap;html=1;" parent="1" vertex="1">
          <mxGeometry x="407.21820448877804" y="175.18390804597675" width="39.381546134663346" height="60" as="geometry" />
        </mxCell>
        <mxCell id="DogAiKTYdXcOURNrDC-U-33" style="edgeStyle=orthogonalEdgeStyle;rounded=0;orthogonalLoop=1;jettySize=auto;html=1;exitX=1;exitY=0.5;exitDx=0;exitDy=0;entryX=0.5;entryY=1;entryDx=0;entryDy=0;strokeWidth=2;" parent="1" source="DogAiKTYdXcOURNrDC-U-34" target="DogAiKTYdXcOURNrDC-U-32" edge="1">
          <mxGeometry relative="1" as="geometry" />
        </mxCell>
        <mxCell id="DogAiKTYdXcOURNrDC-U-34" value="" style="rounded=0;whiteSpace=wrap;html=1;" parent="1" vertex="1">
          <mxGeometry x="244.5" y="333.18390804597675" width="40" height="60" as="geometry" />
        </mxCell>
        <mxCell id="DogAiKTYdXcOURNrDC-U-35" value="&lt;font face=&quot;Courier New&quot;&gt;void* elem&lt;/font&gt;" style="text;html=1;resizable=0;points=[];autosize=1;align=left;verticalAlign=top;spacingTop=-4;" parent="1" vertex="1">
          <mxGeometry x="241" y="313.18390804597675" width="82" height="15" as="geometry" />
        </mxCell>
        <mxCell id="DogAiKTYdXcOURNrDC-U-36" value="4" style="rounded=0;whiteSpace=wrap;html=1;" parent="1" vertex="1">
          <mxGeometry x="153.39401496259353" y="331.5" width="37.50623441396509" height="60" as="geometry" />
        </mxCell>
        <mxCell id="DogAiKTYdXcOURNrDC-U-37" value="tamElem" style="text;html=1;resizable=0;points=[];autosize=1;align=left;verticalAlign=top;spacingTop=-4;" parent="1" vertex="1">
          <mxGeometry x="153.5" y="308" width="60" height="20" as="geometry" />
        </mxCell>
        <mxCell id="DogAiKTYdXcOURNrDC-U-38" value="4" style="rounded=0;whiteSpace=wrap;html=1;" parent="1" vertex="1">
          <mxGeometry x="317.39401496259353" y="175" width="37.50623441396509" height="60" as="geometry" />
        </mxCell>
        <mxCell id="DogAiKTYdXcOURNrDC-U-39" value="tamElem" style="text;html=1;resizable=0;points=[];autosize=1;align=left;verticalAlign=top;spacingTop=-4;" parent="1" vertex="1">
          <mxGeometry x="317" y="153.5" width="60" height="20" as="geometry" />
        </mxCell>
        <mxCell id="DogAiKTYdXcOURNrDC-U-40" value="int elem" style="text;html=1;resizable=0;points=[];autosize=1;align=left;verticalAlign=top;spacingTop=-4;fontFamily=Courier New;" parent="1" vertex="1">
          <mxGeometry x="407" y="155" width="68" height="14" as="geometry" />
        </mxCell>
        <mxCell id="DogAiKTYdXcOURNrDC-U-43" value="nue-&amp;gt;sig = *pp;" style="text;html=1;resizable=0;points=[];autosize=1;align=left;verticalAlign=top;spacingTop=-4;fontFamily=Courier New;" parent="1" vertex="1">
          <mxGeometry x="852.5" y="1149.603448275862" width="120" height="20" as="geometry" />
        </mxCell>
        <mxCell id="DogAiKTYdXcOURNrDC-U-44" value="*pp = nue;" style="text;html=1;resizable=0;points=[];autosize=1;align=left;verticalAlign=top;spacingTop=-4;fontFamily=Courier New;" parent="1" vertex="1">
          <mxGeometry x="853" y="1190.083448275862" width="90" height="20" as="geometry" />
        </mxCell>
        <mxCell id="VzSruJw_X9b5pIAjGCg9-80" style="edgeStyle=orthogonalEdgeStyle;rounded=0;orthogonalLoop=1;jettySize=auto;html=1;exitX=0;exitY=0.5;exitDx=0;exitDy=0;entryX=1;entryY=0.5;entryDx=0;entryDy=0;" parent="1" source="VzSruJw_X9b5pIAjGCg9-81" target="VzSruJw_X9b5pIAjGCg9-82" edge="1">
          <mxGeometry relative="1" as="geometry" />
        </mxCell>
        <mxCell id="VzSruJw_X9b5pIAjGCg9-81" value="" style="rounded=0;whiteSpace=wrap;html=1;" parent="1" vertex="1">
          <mxGeometry x="357.85660847880297" y="1312.01724137931" width="40.31920199501247" height="60" as="geometry" />
        </mxCell>
        <mxCell id="VzSruJw_X9b5pIAjGCg9-82" value="1" style="rounded=0;whiteSpace=wrap;html=1;" parent="1" vertex="1">
          <mxGeometry x="275.71820448877804" y="1311.51724137931" width="39.381546134663346" height="60" as="geometry" />
        </mxCell>
        <mxCell id="VzSruJw_X9b5pIAjGCg9-83" value="" style="rounded=0;whiteSpace=wrap;html=1;" parent="1" vertex="1">
          <mxGeometry x="432.4002493765586" y="1312.01724137931" width="37.50623441396509" height="60" as="geometry" />
        </mxCell>
        <mxCell id="VzSruJw_X9b5pIAjGCg9-84" value="4" style="rounded=0;whiteSpace=wrap;html=1;" parent="1" vertex="1">
          <mxGeometry x="398.5" y="1311.8333333333333" width="34" height="60" as="geometry" />
        </mxCell>
        <mxCell id="DogAiKTYdXcOURNrDC-U-50" value="4" style="rounded=0;whiteSpace=wrap;html=1;" parent="1" vertex="1">
          <mxGeometry x="21.5" y="2539.6666666666665" width="40" height="60" as="geometry" />
        </mxCell>
        <mxCell id="DogAiKTYdXcOURNrDC-U-51" value="unsigned tamElem" style="text;html=1;resizable=0;points=[];autosize=1;align=left;verticalAlign=top;spacingTop=-4;fontFamily=Courier New;" parent="1" vertex="1">
          <mxGeometry x="21.5" y="2519.6666666666665" width="110" height="20" as="geometry" />
        </mxCell>
        <mxCell id="1jXVWYmQ-CDgsmhZdw6f-98" value="1" style="ellipse;whiteSpace=wrap;html=1;aspect=fixed;fillColor=#e51400;strokeColor=#B20000;fontColor=#ffffff;" parent="1" vertex="1">
          <mxGeometry x="709" y="3384.9966666666664" width="35" height="35" as="geometry" />
        </mxCell>
        <mxCell id="1jXVWYmQ-CDgsmhZdw6f-99" value="&lt;font&gt;nae = *pp;&lt;/font&gt;" style="text;html=1;resizable=0;points=[];autosize=1;align=left;verticalAlign=top;spacingTop=-4;fontFamily=Courier New;" parent="1" vertex="1">
          <mxGeometry x="749" y="3391.4966666666664" width="90" height="20" as="geometry" />
        </mxCell>
        <mxCell id="1jXVWYmQ-CDgsmhZdw6f-100" value="2" style="ellipse;whiteSpace=wrap;html=1;aspect=fixed;fillColor=#e51400;strokeColor=#B20000;fontColor=#ffffff;" parent="1" vertex="1">
          <mxGeometry x="709" y="3426.6666666666665" width="35" height="35" as="geometry" />
        </mxCell>
        <mxCell id="1jXVWYmQ-CDgsmhZdw6f-101" value="&lt;font&gt;*pp = nae-&amp;gt;sig;&lt;/font&gt;" style="text;html=1;resizable=0;points=[];autosize=1;align=left;verticalAlign=top;spacingTop=-4;fontFamily=Courier New;" parent="1" vertex="1">
          <mxGeometry x="749" y="3436.1666666666665" width="120" height="20" as="geometry" />
        </mxCell>
        <mxCell id="CUOggQJLTnRWmichhhx5-42" value="FC08" style="ellipse;whiteSpace=wrap;html=1;aspect=fixed;" parent="1" vertex="1">
          <mxGeometry x="479.5" y="3431.6666666666665" width="60" height="60" as="geometry" />
        </mxCell>
        <mxCell id="CUOggQJLTnRWmichhhx5-49" value="Pila*/Nodo** pp" style="text;html=1;resizable=0;points=[];autosize=1;align=left;verticalAlign=top;spacingTop=-4;fontFamily=Courier New;" parent="1" vertex="1">
          <mxGeometry x="479" y="3411.6666666666665" width="120" height="20" as="geometry" />
        </mxCell>
        <mxCell id="5fLwKf1DJulYo1z8NdqT-1" value="FBE4" style="text;html=1;resizable=0;points=[];autosize=1;align=left;verticalAlign=top;spacingTop=-4;fontFamily=Courier New;" parent="1" vertex="1">
          <mxGeometry x="452" y="-883.5" width="40" height="20" as="geometry" />
        </mxCell>
        <mxCell id="5fLwKf1DJulYo1z8NdqT-2" value="ED1C" style="text;html=1;resizable=0;points=[];autosize=1;align=left;verticalAlign=top;spacingTop=-4;" parent="1" vertex="1">
          <mxGeometry x="452.5" y="-773.5" width="50" height="20" as="geometry" />
        </mxCell>
        <mxCell id="5fLwKf1DJulYo1z8NdqT-18" value="" style="edgeStyle=orthogonalEdgeStyle;rounded=0;orthogonalLoop=1;jettySize=auto;html=1;strokeWidth=2;" parent="1" source="5fLwKf1DJulYo1z8NdqT-4" target="5fLwKf1DJulYo1z8NdqT-17" edge="1">
          <mxGeometry relative="1" as="geometry" />
        </mxCell>
        <mxCell id="5fLwKf1DJulYo1z8NdqT-4" value="C1F8" style="rounded=0;whiteSpace=wrap;html=1;" parent="1" vertex="1">
          <mxGeometry x="1344.5" y="-1112" width="39" height="60" as="geometry" />
        </mxCell>
        <mxCell id="5fLwKf1DJulYo1z8NdqT-5" value="12" style="rounded=0;whiteSpace=wrap;html=1;" parent="1" vertex="1">
          <mxGeometry x="1381.3940149625935" y="-1112" width="37.50623441396509" height="60" as="geometry" />
        </mxCell>
        <mxCell id="5fLwKf1DJulYo1z8NdqT-6" value="FA04" style="rounded=0;whiteSpace=wrap;html=1;" parent="1" vertex="1">
          <mxGeometry x="1418.9002493765586" y="-1112" width="37.50623441396509" height="60" as="geometry" />
        </mxCell>
        <mxCell id="5fLwKf1DJulYo1z8NdqT-7" value="&lt;font face=&quot;Courier New&quot;&gt;Nodo* nue&lt;/font&gt;" style="text;html=1;resizable=0;points=[];autosize=1;align=left;verticalAlign=top;spacingTop=-4;" parent="1" vertex="1">
          <mxGeometry x="1356" y="-1253" width="80" height="20" as="geometry" />
        </mxCell>
        <mxCell id="5fLwKf1DJulYo1z8NdqT-10" style="edgeStyle=orthogonalEdgeStyle;rounded=0;orthogonalLoop=1;jettySize=auto;html=1;exitX=0.5;exitY=1;exitDx=0;exitDy=0;strokeWidth=2;" parent="1" source="5fLwKf1DJulYo1z8NdqT-8" target="5fLwKf1DJulYo1z8NdqT-5" edge="1">
          <mxGeometry relative="1" as="geometry" />
        </mxCell>
        <mxCell id="5fLwKf1DJulYo1z8NdqT-8" value="F1FC" style="rounded=0;whiteSpace=wrap;html=1;" parent="1" vertex="1">
          <mxGeometry x="1356" y="-1232.051724137931" width="40" height="60" as="geometry" />
        </mxCell>
        <mxCell id="5fLwKf1DJulYo1z8NdqT-9" value="F1FC" style="text;html=1;resizable=0;points=[];autosize=1;align=left;verticalAlign=top;spacingTop=-4;fontFamily=Courier New;" parent="1" vertex="1">
          <mxGeometry x="1344.5" y="-1132" width="50" height="20" as="geometry" />
        </mxCell>
        <mxCell id="5fLwKf1DJulYo1z8NdqT-11" value="" style="rounded=0;whiteSpace=wrap;html=1;" parent="1" vertex="1">
          <mxGeometry x="1030" y="-1240" width="110" height="60" as="geometry" />
        </mxCell>
        <mxCell id="5fLwKf1DJulYo1z8NdqT-12" value="&lt;font face=&quot;Courier New&quot;&gt;void* dato&lt;/font&gt;" style="text;html=1;resizable=0;points=[];autosize=1;align=left;verticalAlign=top;spacingTop=-4;" parent="1" vertex="1">
          <mxGeometry x="1030" y="-1380" width="90" height="20" as="geometry" />
        </mxCell>
        <mxCell id="5fLwKf1DJulYo1z8NdqT-15" style="edgeStyle=orthogonalEdgeStyle;rounded=0;orthogonalLoop=1;jettySize=auto;html=1;exitX=0.5;exitY=1;exitDx=0;exitDy=0;entryX=0.5;entryY=0;entryDx=0;entryDy=0;strokeWidth=2;" parent="1" source="5fLwKf1DJulYo1z8NdqT-13" target="5fLwKf1DJulYo1z8NdqT-11" edge="1">
          <mxGeometry relative="1" as="geometry" />
        </mxCell>
        <mxCell id="5fLwKf1DJulYo1z8NdqT-13" value="E4A8" style="rounded=0;whiteSpace=wrap;html=1;" parent="1" vertex="1">
          <mxGeometry x="1042.5" y="-1360.051724137931" width="40" height="60" as="geometry" />
        </mxCell>
        <mxCell id="5fLwKf1DJulYo1z8NdqT-14" value="&lt;span style=&quot;text-align: center ; white-space: normal&quot;&gt;E4A8&lt;/span&gt;" style="text;html=1;resizable=0;points=[];autosize=1;align=left;verticalAlign=top;spacingTop=-4;" parent="1" vertex="1">
          <mxGeometry x="1030" y="-1260" width="40" height="20" as="geometry" />
        </mxCell>
        <mxCell id="5fLwKf1DJulYo1z8NdqT-17" value="Buenos días" style="rounded=0;whiteSpace=wrap;html=1;" parent="1" vertex="1">
          <mxGeometry x="1234" y="-1112" width="80" height="60" as="geometry" />
        </mxCell>
        <mxCell id="5fLwKf1DJulYo1z8NdqT-19" value="C1F8" style="text;html=1;resizable=0;points=[];autosize=1;align=left;verticalAlign=top;spacingTop=-4;fontFamily=Courier New;" parent="1" vertex="1">
          <mxGeometry x="1234" y="-1132" width="40" height="20" as="geometry" />
        </mxCell>
        <mxCell id="5fLwKf1DJulYo1z8NdqT-20" value="12" style="rounded=0;whiteSpace=wrap;html=1;" parent="1" vertex="1">
          <mxGeometry x="1160" y="-1370.051724137931" width="40" height="60" as="geometry" />
        </mxCell>
        <mxCell id="5fLwKf1DJulYo1z8NdqT-21" value="size_t tamElem" style="text;html=1;resizable=0;points=[];autosize=1;align=left;verticalAlign=top;spacingTop=-4;fontFamily=Courier New;" parent="1" vertex="1">
          <mxGeometry x="1160" y="-1390" width="120" height="20" as="geometry" />
        </mxCell>
        <mxCell id="E2CzWp87vkK9OvBvpkYC-13" value="1" style="ellipse;whiteSpace=wrap;html=1;aspect=fixed;fillColor=#e51400;strokeColor=#B20000;fontColor=#ffffff;" parent="1" vertex="1">
          <mxGeometry x="219.00000000000003" y="2543.804597701149" width="35" height="35" as="geometry" />
        </mxCell>
        <mxCell id="E2CzWp87vkK9OvBvpkYC-15" value="2" style="ellipse;whiteSpace=wrap;html=1;aspect=fixed;fillColor=#e51400;strokeColor=#B20000;fontColor=#ffffff;" parent="1" vertex="1">
          <mxGeometry x="510.1700000000001" y="2564.664597701149" width="35" height="35" as="geometry" />
        </mxCell>
        <mxCell id="E2CzWp87vkK9OvBvpkYC-17" value="1" style="ellipse;whiteSpace=wrap;html=1;aspect=fixed;fillColor=#e51400;strokeColor=#B20000;fontColor=#ffffff;" parent="1" vertex="1">
          <mxGeometry x="499" y="3590.1666666666665" width="35" height="35" as="geometry" />
        </mxCell>
        <mxCell id="E2CzWp87vkK9OvBvpkYC-18" value="2" style="ellipse;whiteSpace=wrap;html=1;aspect=fixed;fillColor=#e51400;strokeColor=#B20000;fontColor=#ffffff;" parent="1" vertex="1">
          <mxGeometry x="418.5" y="3320.6666666666665" width="35" height="35" as="geometry" />
        </mxCell>
        <mxCell id="2oO5v3imk66Kno3tlpe0-5" style="edgeStyle=orthogonalEdgeStyle;rounded=0;orthogonalLoop=1;jettySize=auto;html=1;exitX=1;exitY=0.5;exitDx=0;exitDy=0;entryX=0;entryY=0.5;entryDx=0;entryDy=0;strokeColor=#FFFFFF;strokeWidth=2;" parent="1" source="2oO5v3imk66Kno3tlpe0-2" target="VzSruJw_X9b5pIAjGCg9-36" edge="1">
          <mxGeometry relative="1" as="geometry">
            <Array as="points">
              <mxPoint x="514" y="-1173.95" />
              <mxPoint x="514" y="-1081.95" />
            </Array>
          </mxGeometry>
        </mxCell>
        <mxCell id="2oO5v3imk66Kno3tlpe0-2" value="&lt;font face=&quot;Courier New&quot; style=&quot;font-size: 15px&quot;&gt;FC08&lt;/font&gt;" style="ellipse;whiteSpace=wrap;html=1;aspect=fixed;" parent="1" vertex="1">
          <mxGeometry x="428.99666666666667" y="-1203.9506896551725" width="60" height="60" as="geometry" />
        </mxCell>
        <mxCell id="2oO5v3imk66Kno3tlpe0-3" value="&lt;font style=&quot;font-size: 15px;&quot;&gt;Pila* / Nodo**&lt;/font&gt;" style="text;html=1;resizable=0;points=[];autosize=1;align=left;verticalAlign=top;spacingTop=-4;fontFamily=Courier New;fontSize=15;" parent="1" vertex="1">
          <mxGeometry x="448.49666666666667" y="-1243.9506896551725" width="120" height="20" as="geometry" />
        </mxCell>
        <mxCell id="2oO5v3imk66Kno3tlpe0-4" value="pp" style="text;html=1;resizable=0;points=[];autosize=1;align=left;verticalAlign=top;spacingTop=-4;fontFamily=Courier New;fontSize=15;" parent="1" vertex="1">
          <mxGeometry x="448.49666666666667" y="-1223.9506896551725" width="30" height="20" as="geometry" />
        </mxCell>
        <mxCell id="2oO5v3imk66Kno3tlpe0-6" value="1" style="ellipse;whiteSpace=wrap;html=1;aspect=fixed;fillColor=#e51400;strokeColor=#B20000;fontColor=#ffffff;" parent="1" vertex="1">
          <mxGeometry x="1489.2" y="-1049.004367816092" width="35" height="35" as="geometry" />
        </mxCell>
        <mxCell id="2oO5v3imk66Kno3tlpe0-11" value="1" style="ellipse;whiteSpace=wrap;html=1;aspect=fixed;fillColor=#e51400;strokeColor=#B20000;fontColor=#ffffff;" parent="1" vertex="1">
          <mxGeometry x="1837" y="-1094.004367816092" width="35" height="35" as="geometry" />
        </mxCell>
        <mxCell id="2oO5v3imk66Kno3tlpe0-12" value="2" style="ellipse;whiteSpace=wrap;html=1;aspect=fixed;fillColor=#e51400;strokeColor=#B20000;fontColor=#ffffff;" parent="1" vertex="1">
          <mxGeometry x="1837" y="-1051.004367816092" width="35" height="35" as="geometry" />
        </mxCell>
        <mxCell id="2oO5v3imk66Kno3tlpe0-13" value="nue-&amp;gt;sig = *pp;" style="text;html=1;align=center;verticalAlign=middle;resizable=0;points=[];autosize=1;strokeColor=none;fillColor=none;fontFamily=Courier New;fontSize=15;" parent="1" vertex="1">
          <mxGeometry x="1877" y="-1087.5" width="145" height="22" as="geometry" />
        </mxCell>
        <mxCell id="2oO5v3imk66Kno3tlpe0-14" value="*PP = nue;" style="text;html=1;align=center;verticalAlign=middle;resizable=0;points=[];autosize=1;strokeColor=none;fillColor=none;fontFamily=Courier New;fontSize=15;" parent="1" vertex="1">
          <mxGeometry x="1877" y="-1044.5" width="100" height="22" as="geometry" />
        </mxCell>
        <mxCell id="VzSruJw_X9b5pIAjGCg9-74" value="" style="rounded=0;whiteSpace=wrap;html=1;" parent="1" vertex="1">
          <mxGeometry x="350.41" y="1433.01724137931" width="43" height="60" as="geometry" />
        </mxCell>
        <mxCell id="VzSruJw_X9b5pIAjGCg9-75" value="3" style="rounded=0;whiteSpace=wrap;html=1;" parent="1" vertex="1">
          <mxGeometry x="275.63000000000005" y="1433.01724137931" width="42" height="60" as="geometry" />
        </mxCell>
        <mxCell id="VzSruJw_X9b5pIAjGCg9-76" style="edgeStyle=orthogonalEdgeStyle;rounded=0;orthogonalLoop=1;jettySize=auto;html=1;entryX=1;entryY=0.5;entryDx=0;entryDy=0;" parent="1" source="VzSruJw_X9b5pIAjGCg9-74" target="VzSruJw_X9b5pIAjGCg9-75" edge="1">
          <mxGeometry x="269.41" y="1433.01724137931" as="geometry" />
        </mxCell>
        <mxCell id="VzSruJw_X9b5pIAjGCg9-77" value="" style="rounded=0;whiteSpace=wrap;html=1;" parent="1" vertex="1">
          <mxGeometry x="429.91" y="1433.01724137931" width="40" height="60" as="geometry" />
        </mxCell>
        <mxCell id="VzSruJw_X9b5pIAjGCg9-78" value="4" style="rounded=0;whiteSpace=wrap;html=1;" parent="1" vertex="1">
          <mxGeometry x="389.91" y="1433.01724137931" width="40" height="60" as="geometry" />
        </mxCell>
        <mxCell id="ddpkEbkREBOrUjTEoc_Z-7" style="edgeStyle=orthogonalEdgeStyle;rounded=0;orthogonalLoop=1;jettySize=auto;html=1;exitX=0.5;exitY=1;exitDx=0;exitDy=0;fontSize=23;strokeColor=#FFFFFF;strokeWidth=2;" parent="1" source="ddpkEbkREBOrUjTEoc_Z-5" target="VzSruJw_X9b5pIAjGCg9-126" edge="1">
          <mxGeometry relative="1" as="geometry">
            <Array as="points">
              <mxPoint x="828.5" y="757" />
              <mxPoint x="829.5" y="757" />
            </Array>
          </mxGeometry>
        </mxCell>
        <mxCell id="ddpkEbkREBOrUjTEoc_Z-5" value="DC80" style="rounded=0;whiteSpace=wrap;html=1;" parent="1" vertex="1">
          <mxGeometry x="808.9100000000002" y="657" width="40" height="67" as="geometry" />
        </mxCell>
        <mxCell id="ddpkEbkREBOrUjTEoc_Z-6" value="void* elemNodo" style="text;html=1;resizable=0;points=[];autosize=1;align=left;verticalAlign=top;spacingTop=-4;fontFamily=Courier New;" parent="1" vertex="1">
          <mxGeometry x="778.0500000000001" y="636.9999999999998" width="111" height="14" as="geometry" />
        </mxCell>
        <mxCell id="ddpkEbkREBOrUjTEoc_Z-9" value="1" style="ellipse;whiteSpace=wrap;html=1;aspect=fixed;fillColor=#e51400;strokeColor=#B20000;fontColor=#ffffff;" parent="1" vertex="1">
          <mxGeometry x="1015.5" y="859.49724137931" width="35" height="35" as="geometry" />
        </mxCell>
        <mxCell id="ddpkEbkREBOrUjTEoc_Z-11" value="2" style="ellipse;whiteSpace=wrap;html=1;aspect=fixed;fillColor=#e51400;strokeColor=#B20000;fontColor=#ffffff;" parent="1" vertex="1">
          <mxGeometry x="730" y="768.97724137931" width="35" height="35" as="geometry" />
        </mxCell>
        <mxCell id="vnGXNr5x_kphjXObbJ1g-4" style="edgeStyle=orthogonalEdgeStyle;rounded=0;orthogonalLoop=1;jettySize=auto;html=1;exitX=1;exitY=0.5;exitDx=0;exitDy=0;entryX=0;entryY=0.5;entryDx=0;entryDy=0;" parent="1" source="vnGXNr5x_kphjXObbJ1g-2" target="VzSruJw_X9b5pIAjGCg9-144" edge="1">
          <mxGeometry relative="1" as="geometry" />
        </mxCell>
        <mxCell id="vnGXNr5x_kphjXObbJ1g-2" value="DC80" style="rounded=0;whiteSpace=wrap;html=1;" parent="1" vertex="1">
          <mxGeometry x="206" y="441.06390804597675" width="40" height="60" as="geometry" />
        </mxCell>
        <mxCell id="vnGXNr5x_kphjXObbJ1g-3" value="&lt;font face=&quot;Courier New&quot;&gt;void* elemNodo&lt;/font&gt;" style="text;html=1;resizable=0;points=[];autosize=1;align=left;verticalAlign=top;spacingTop=-4;" parent="1" vertex="1">
          <mxGeometry x="202.5" y="421.06390804597675" width="119" height="21" as="geometry" />
        </mxCell>
        <mxCell id="UUmBQIanD07gFp9sYFJJ-2" value="Pila" style="text;html=1;align=center;verticalAlign=middle;resizable=0;points=[];autosize=1;strokeColor=none;fillColor=none;" vertex="1" parent="1">
          <mxGeometry x="370.32" y="3242" width="38" height="26" as="geometry" />
        </mxCell>
        <mxCell id="UUmBQIanD07gFp9sYFJJ-12" style="edgeStyle=orthogonalEdgeStyle;rounded=0;orthogonalLoop=1;jettySize=auto;html=1;exitX=0;exitY=0.5;exitDx=0;exitDy=0;entryX=1;entryY=0.5;entryDx=0;entryDy=0;strokeWidth=2;" edge="1" parent="1" source="UUmBQIanD07gFp9sYFJJ-3" target="UUmBQIanD07gFp9sYFJJ-10">
          <mxGeometry relative="1" as="geometry" />
        </mxCell>
        <mxCell id="UUmBQIanD07gFp9sYFJJ-3" value="DC80" style="rounded=0;whiteSpace=wrap;html=1;" vertex="1" parent="1">
          <mxGeometry x="534.476608478803" y="1044.99724137931" width="40.31920199501247" height="60" as="geometry" />
        </mxCell>
        <mxCell id="UUmBQIanD07gFp9sYFJJ-13" style="edgeStyle=orthogonalEdgeStyle;rounded=0;orthogonalLoop=1;jettySize=auto;html=1;exitX=1;exitY=0.5;exitDx=0;exitDy=0;entryX=0.872;entryY=0.025;entryDx=0;entryDy=0;entryPerimeter=0;fillColor=#e51400;strokeColor=#B20000;strokeWidth=2;" edge="1" parent="1" source="UUmBQIanD07gFp9sYFJJ-4" target="VzSruJw_X9b5pIAjGCg9-101">
          <mxGeometry relative="1" as="geometry" />
        </mxCell>
        <mxCell id="UUmBQIanD07gFp9sYFJJ-4" value="BA18" style="rounded=0;whiteSpace=wrap;html=1;" vertex="1" parent="1">
          <mxGeometry x="609.0202493765587" y="1044.99724137931" width="37.50623441396509" height="60" as="geometry" />
        </mxCell>
        <mxCell id="UUmBQIanD07gFp9sYFJJ-5" value="4" style="rounded=0;whiteSpace=wrap;html=1;" vertex="1" parent="1">
          <mxGeometry x="571.5140149625936" y="1044.99724137931" width="37.50623441396509" height="60" as="geometry" />
        </mxCell>
        <mxCell id="UUmBQIanD07gFp9sYFJJ-9" style="edgeStyle=orthogonalEdgeStyle;rounded=0;orthogonalLoop=1;jettySize=auto;html=1;exitX=0.5;exitY=1;exitDx=0;exitDy=0;" edge="1" parent="1" source="UUmBQIanD07gFp9sYFJJ-6" target="UUmBQIanD07gFp9sYFJJ-5">
          <mxGeometry relative="1" as="geometry" />
        </mxCell>
        <mxCell id="UUmBQIanD07gFp9sYFJJ-6" value="CC04" style="rounded=0;whiteSpace=wrap;html=1;" vertex="1" parent="1">
          <mxGeometry x="570.6800000000001" y="940" width="40" height="67" as="geometry" />
        </mxCell>
        <mxCell id="UUmBQIanD07gFp9sYFJJ-7" value="Nodo* nue" style="text;html=1;resizable=0;points=[];autosize=1;align=left;verticalAlign=top;spacingTop=-4;fontFamily=Courier New;" vertex="1" parent="1">
          <mxGeometry x="563.5000000000001" y="919.9999999999998" width="80" height="20" as="geometry" />
        </mxCell>
        <mxCell id="UUmBQIanD07gFp9sYFJJ-8" value="CC04" style="text;html=1;resizable=0;points=[];autosize=1;align=left;verticalAlign=top;spacingTop=-4;" vertex="1" parent="1">
          <mxGeometry x="531.3600000000001" y="1021.99724137931" width="50" height="20" as="geometry" />
        </mxCell>
        <mxCell id="UUmBQIanD07gFp9sYFJJ-10" value="8" style="rounded=0;whiteSpace=wrap;html=1;" vertex="1" parent="1">
          <mxGeometry x="464.90820448877804" y="1044.99724137931" width="39.381546134663346" height="60" as="geometry" />
        </mxCell>
        <mxCell id="UUmBQIanD07gFp9sYFJJ-11" value="DC80" style="text;html=1;resizable=0;points=[];autosize=1;align=left;verticalAlign=top;spacingTop=-4;fontFamily=Courier New;" vertex="1" parent="1">
          <mxGeometry x="462.50000000000006" y="1024.9999999999998" width="40" height="20" as="geometry" />
        </mxCell>
        <mxCell id="UUmBQIanD07gFp9sYFJJ-14" value="1" style="ellipse;whiteSpace=wrap;html=1;aspect=fixed;fillColor=#e51400;strokeColor=#B20000;fontColor=#ffffff;" vertex="1" parent="1">
          <mxGeometry x="676.5" y="1089.99724137931" width="35" height="35" as="geometry" />
        </mxCell>
        <mxCell id="UUmBQIanD07gFp9sYFJJ-16" value="2" style="ellipse;whiteSpace=wrap;html=1;aspect=fixed;fillColor=#e51400;strokeColor=#B20000;fontColor=#ffffff;" vertex="1" parent="1">
          <mxGeometry x="489" y="946.99724137931" width="35" height="35" as="geometry" />
        </mxCell>
      </root>
    </mxGraphModel>
  </diagram>
</mxfile>
